#N canvas 35 39 960 459 12;
#X declare -path ./audio/instruments;
#X declare -path ./audio/objects;
#X declare -path ./visuals/objects;
#X declare -lib Gem;
#X declare -path ./visuals/vfx;
#X declare -lib Gem;
#N canvas 0 145 920 772 gemwin 0;
#X obj 99 257 gemwin;
#X obj 67 89 outlet;
#X obj 67 10 inlet;
#X obj 67 41 route create;
#X msg 67 70 set destroy;
#X msg 182 68 set create;
#X msg 132 112 create \, 1;
#X msg 238 112 destroy;
#N canvas 87 154 246 179 Gem.init 0;
#X obj 59 26 loadbang;
#X msg 118 81 reset;
#X obj 118 113 outlet;
#X obj 59 45 t b b;
#X connect 0 0 3 0;
#X connect 1 0 2 0;
#X connect 3 1 1 0;
#X restore 289 80 pd Gem.init;
#X obj 233 173 loadbang;
#X msg 232 213 lighting 1;
#X connect 2 0 3 0;
#X connect 3 0 4 0;
#X connect 3 0 6 0;
#X connect 3 1 5 0;
#X connect 3 1 7 0;
#X connect 4 0 1 0;
#X connect 5 0 1 0;
#X connect 6 0 0 0;
#X connect 7 0 0 0;
#X connect 8 0 0 0;
#X connect 9 0 10 0;
#X connect 10 0 0 0;
#X restore 460 45 pd gemwin;
#X msg 460 21 destroy;
#X obj 6 7 netreceive -u 6000;
#X obj 28 129 s message;
#N canvas 758 223 622 529 imports 0;
#X obj 6 6 declare -path ./audio/instruments;
#X obj 6 28 declare -path ./audio/objects;
#X obj 6 51 declare -path ./visuals/objects;
#X obj 6 97 declare -lib Gem;
#X obj 6 74 declare -path ./visuals/vfx;
#X restore 545 14 pd imports;
#N canvas 0 539 960 193 main-visuals 0;
#X obj 450 274 separator;
#N canvas 760 148 960 944 newWave 0;
#X obj 40 24 inlet;
#X floatatom 143 479 5 0 0 2 size - - 0;
#X floatatom 144 508 5 0 0 2 height - - 0;
#X floatatom 80 75 5 0 0 0 - - - 0;
#X msg 74 205 draw line;
#X msg 74 225 draw fill;
#X msg 74 245 draw point;
#X obj 116 287 vradio 11 1 0 11 empty empty action -10 -6 0 8 #fcfcfc #000000 #000000 0;
#X floatatom 177 191 5 0 100 0 - - - 0;
#X obj 177 209 / 100;
#X msg 177 228 K1 \$1;
#X obj 45 492 t a b;
#X floatatom 177 251 5 0 100 0 - - - 0;
#X obj 177 269 / 100;
#X floatatom 177 311 5 0 100 0 - - - 0;
#X obj 177 329 / 100;
#X floatatom 227 191 5 0 100 0 - - - 0;
#X obj 227 209 / 100;
#X floatatom 227 251 5 0 100 0 - - - 0;
#X obj 227 269 / 100;
#X floatatom 227 311 5 0 100 0 - - - 0;
#X obj 227 329 / 100;
#X msg 227 228 D1 \$1;
#X msg 227 288 D2 \$1;
#X msg 227 348 D3 \$1;
#X msg 177 348 K3 \$1;
#X msg 177 288 K2 \$1;
#X obj 146 305 t a;
#X obj 146 245 t a;
#X obj 146 365 t a;
#X msg 339 302 position 1 1 10;
#X msg 337 348 noise 1;
#X obj 44 527 newWave 30 10;
#X msg 53 179 texture 0;
#X msg 324 405 force 15 5 -0.5;
#X obj 48 94 rotateXYZ 135 0 0;
#X floatatom 110 71 5 0 0 0 - - - 0;
#X obj 46 53 translateXYZ;
#X floatatom 140 75 5 0 0 0 - - - 0;
#X floatatom 79 24 5 0 0 0 - - - 0;
#X floatatom 109 20 5 0 0 0 - - - 0;
#X floatatom 139 24 5 0 0 0 - - - 0;
#X obj 223 18 tgl 15 0 empty empty empty 17 7 0 10 #fcfcfc #000000 #000000 0 1;
#X obj 223 67 i 0;
#X obj 251 66 + 1;
#X floatatom 223 87 5 0 0 0 - - - 0;
#X obj 252 119 / 2;
#X obj 253 140 % 100;
#X obj 223 41 metro 40;
#X obj 333 11 loadbang;
#X obj 97 -15 unpack 0 0 0 0 0 0 0;
#X obj 319 108 random 100;
#X obj 310 77 b;
#X obj 319 148 sel 1;
#X obj 321 174 bng 15 250 50 0 empty empty empty 17 7 0 10 #fcfcfc #000000 #000000;
#X obj 319 128 > 98;
#X obj 303 252 random 9;
#X msg 335 33 -2 -2 -1 12 -23 3 14;
#X obj 404 204 inlet;
#X connect 0 0 37 0;
#X connect 1 0 32 1;
#X connect 2 0 32 2;
#X connect 3 0 35 1;
#X connect 4 0 32 0;
#X connect 5 0 32 0;
#X connect 6 0 32 0;
#X connect 7 0 32 3;
#X connect 8 0 9 0;
#X connect 9 0 10 0;
#X connect 10 0 28 0;
#X connect 11 0 32 0;
#X connect 11 1 32 0;
#X connect 12 0 13 0;
#X connect 13 0 26 0;
#X connect 14 0 15 0;
#X connect 15 0 25 0;
#X connect 16 0 17 0;
#X connect 17 0 22 0;
#X connect 18 0 19 0;
#X connect 19 0 23 0;
#X connect 20 0 21 0;
#X connect 21 0 24 0;
#X connect 22 0 28 0;
#X connect 23 0 27 0;
#X connect 24 0 29 0;
#X connect 25 0 29 0;
#X connect 26 0 27 0;
#X connect 27 0 29 0;
#X connect 28 0 27 0;
#X connect 29 0 32 0;
#X connect 30 0 32 0;
#X connect 31 0 32 0;
#X connect 33 0 32 0;
#X connect 34 0 32 0;
#X connect 35 0 11 0;
#X connect 36 0 35 2;
#X connect 37 0 35 0;
#X connect 38 0 35 3;
#X connect 39 0 37 1;
#X connect 40 0 37 2;
#X connect 41 0 37 3;
#X connect 42 0 48 0;
#X connect 43 0 44 0;
#X connect 43 0 45 0;
#X connect 44 0 43 1;
#X connect 45 0 46 0;
#X connect 45 0 52 0;
#X connect 46 0 47 0;
#X connect 47 0 38 0;
#X connect 48 0 43 0;
#X connect 49 0 42 0;
#X connect 49 0 57 0;
#X connect 49 0 4 0;
#X connect 50 0 39 0;
#X connect 50 1 40 0;
#X connect 50 2 41 0;
#X connect 50 3 3 0;
#X connect 50 4 36 0;
#X connect 50 5 1 0;
#X connect 50 6 2 0;
#X connect 51 0 55 0;
#X connect 52 0 51 0;
#X connect 53 0 54 0;
#X connect 54 0 56 0;
#X connect 55 0 53 0;
#X connect 57 0 50 0;
#X connect 58 0 31 0;
#X restore 450 298 pd newWave;
#X obj 168 358 s m-vj-out;
#X obj 431 392 r message;
#X obj 431 420 route c1;
#X obj 538 254 bng 19 250 50 0 empty empty empty 0 -10 0 12 #fcfcfc #000000 #000000;
#X obj 398 443 cube2;
#X obj 82 11 inlet;
#X obj 7 8 r message;
#N canvas 0 224 960 602 video_channel 0;
#X obj 54 59 route v;
#X obj 122 395 tgl 19 0 empty empty empty 0 -10 0 12 #fcfcfc #000000 #000000 0 1;
#X obj 52 385 separator;
#X obj 46 423 video, f 15;
#X obj 33 293 i;
#X obj 66 291 + 1;
#X floatatom 16 263 5 0 0 0 - - - 0;
#X obj 58 110 bng 19 250 50 0 empty empty empty 0 -10 0 12 #fcfcfc #000000 #000000;
#X obj 37 454 bng 19 250 50 0 empty empty empty 0 -10 0 12 #fcfcfc #000000 #000000;
#X obj 104 114 bng 19 250 50 0 empty empty empty 0 -10 0 12 #fcfcfc #000000 #000000;
#X obj 104 138 random;
#X floatatom 127 515 5 0 0 0 - - - 0;
#X obj 17 503 spigot 0;
#X obj 90 453 tgl 19 0 empty empty empty 0 -10 0 12 #fcfcfc #000000 #000000 0 1;
#X obj 55 85 route next random seq on off;
#X msg 171 107 1;
#X msg 208 107 0;
#X obj 56 7 inlet;
#X obj 311 97 inlet;
#X obj 63 321 inlet;
#X connect 0 0 14 0;
#X connect 0 0 6 0;
#X connect 1 0 3 2;
#X connect 2 0 3 0;
#X connect 3 0 8 0;
#X connect 3 1 10 1;
#X connect 3 1 11 0;
#X connect 4 0 5 0;
#X connect 4 0 3 1;
#X connect 5 0 4 1;
#X connect 6 0 4 0;
#X connect 7 0 4 0;
#X connect 8 0 12 0;
#X connect 9 0 10 0;
#X connect 10 0 6 0;
#X connect 12 0 4 0;
#X connect 13 0 12 1;
#X connect 14 0 7 0;
#X connect 14 1 9 0;
#X connect 14 2 13 0;
#X connect 14 3 15 0;
#X connect 14 4 16 0;
#X connect 15 0 1 0;
#X connect 16 0 1 0;
#X connect 17 0 0 0;
#X connect 18 0 1 0;
#X connect 19 0 2 0;
#X restore 6 272 pd video_channel;
#X f 21;
#N canvas 395 30 1224 916 main-scene 0;
#X obj 8 81 gemframebuffer;
#X obj 8 127 t a a b;
#X obj 8 104 translateXYZ 0 0 -4;
#X obj 89 36 loadbang;
#X obj 6 9 declare -lib Gem;
#X obj 8 151 t a b;
#X msg 69 262 snap;
#X obj 8 314 t a b;
#X msg 188 328 1;
#X obj 8 350 pix_buffer_write \$0-framebuffer;
#X obj 119 263 outlet;
#X obj 214 58 t a b;
#X msg 391 59 1;
#X obj 214 80 pix_buffer_read \$0-framebuffer;
#X obj 216 104 outlet;
#X obj 129 8 inlet;
#X obj 356 161 pix_texture;
#X obj 182 168 r m-vj-out;
#X obj 355 218 rectangle 7.12 4.07;
#X floatatom 421 196 5 0 0 0 - - - 0;
#X floatatom 485 195 5 0 0 0 - - - 0;
#X floatatom 141 78 5 0 0 0 - - - 0;
#X text 216 283 We want to have a 3D scene \, video's playing behind it and to apply video effects to the output. This is achieved using pix_snap THank you hellocatfood for your patch that I used for inspiration!;
#X obj 8 375 pix_buffer \$0-framebuffer 2;
#X obj 214 33 gemhead 30;
#X msg 89 56 dimen 1024 768;
#X obj 8 290 pix_snap 0 0 1024 768;
#X obj 532 202 world_light 1;
#X obj 8 57 gemhead 33;
#N canvas -49 220 1919 944 pix2tex 0;
#X obj 13 23 inlet;
#X obj 45 174 pix_info, f 29;
#X obj 45 253 pix_texture;
#X obj 45 278 rectangle;
#X obj 84 210 /;
#X obj 13 61 t a a;
#X obj 45 145 separator;
#X obj 13 86 outlet;
#X obj 45 123 scale;
#X obj 155 23 loadbang;
#X obj 155 48 gemargs;
#X obj 153 75 route bang;
#X connect 0 0 5 0;
#X connect 1 0 2 0;
#X connect 1 1 4 0;
#X connect 1 2 4 1;
#X connect 2 0 3 0;
#X connect 4 0 3 1;
#X connect 5 0 7 0;
#X connect 5 1 8 0;
#X connect 6 0 1 0;
#X connect 8 0 6 0;
#X connect 9 0 10 0;
#X connect 10 0 2 0;
#X connect 10 1 11 0;
#X connect 11 1 8 1;
#X restore 197 217 pd pix2tex;
#X connect 0 0 2 0;
#X connect 1 0 5 0;
#X connect 1 1 10 0;
#X connect 1 1 27 0;
#X connect 2 0 1 0;
#X connect 3 0 25 0;
#X connect 5 0 26 0;
#X connect 5 1 6 0;
#X connect 6 0 26 0;
#X connect 7 0 9 0;
#X connect 7 1 8 0;
#X connect 8 0 9 1;
#X connect 11 0 13 0;
#X connect 11 1 12 0;
#X connect 12 0 13 1;
#X connect 13 0 14 0;
#X connect 15 0 24 0;
#X connect 15 0 28 0;
#X connect 16 0 18 0;
#X connect 17 0 16 0;
#X connect 19 0 18 1;
#X connect 20 0 18 2;
#X connect 21 0 2 3;
#X connect 24 0 11 0;
#X connect 25 0 0 0;
#X connect 26 0 7 0;
#X connect 28 0 0 0;
#X restore 80 38 pd main-scene;
#X obj 276 344 janky_vfx_refraction;
#X obj 168 214 janky_vfx_puzzle;
#X obj 168 261 janky_vfx_movement2;
#X obj 168 309 janky_vfx_motionblur;
#X obj 168 285 janky_vfx_lumaoffset;
#X obj 168 190 janky_vfx_invert;
#X obj 168 238 janky_vfx_halftone;
#X obj 168 141 janky_vfx_gain;
#X obj 168 117 janky_vfx_flip;
#X obj 168 166 janky_vfx_delay;
#X obj 135 243 tgl 19 0 empty empty empty 0 -10 0 12 #fcfcfc #000000 #000000 0 1;
#X obj 168 94 janky_vfx_roll;
#X text 132 9 thou shalt not use kaleidoscope;
#N canvas 0 0 960 945 _reset_vfx 0;
#X obj 25 9 inlet;
#X obj 29 134 s message;
#N canvas 139 45 710 592 reset 0;
#X msg 34 67 v fx roll off \, v fx puzzle off \, v fx flip off \, v fx gain off \, v fx delay off \, v fx invert off \, v fx puzzle off \, v fx halftone off \, v fx movement2 off \, v fx lumaoffset off \, v fx motionblur off \, v fx refraction off \;;
#X obj 37 12 inlet;
#X obj 34 251 outlet;
#X obj 37 37 bng 19 250 50 0 empty empty empty 0 -10 0 12 #fcfcfc #000000 #000000;
#X msg 54 150 v fx roll on \, v fx puzzle on \, v fx flip on \, v fx gain on \, v fx delay on \, v fx invert on \, v fx puzzle on \, v fx halftone on \, v fx movement2 on \, v fx lumaoffset on \, v fx motionblur on \, v fx refraction on \;;
#X connect 0 0 2 0;
#X connect 1 0 3 0;
#X connect 3 0 0 0;
#X connect 4 0 2 0;
#X restore 27 111 pd reset;
#X obj 26 36 route v;
#X obj 26 61 route fx;
#X obj 26 86 route reset;
#X obj 81 6 inlet;
#X connect 0 0 3 0;
#X connect 2 0 1 0;
#X connect 3 0 4 0;
#X connect 4 0 5 0;
#X connect 5 0 2 0;
#X connect 6 0 2 0;
#X restore 23 73 pd _reset_vfx;
#X obj 28 36 bng 19 250 50 0 empty empty empty 0 -10 0 12 #fcfcfc #000000 #000000;
#X msg 10 509 v fx roll on \, v fx puzzle on \, v fx flip on \, v fx gain on \, v fx delay on \, v fx invert on \, v fx puzzle on \, v fx halftone on \, v fx movement2 on \, v fx lumaoffset on \, v fx motionblur on \, v fx refraction on \;;
#X obj 10 996 s message;
#X msg 32 929 v fx motionblur on;
#X msg 36 956 v fx motionblur off;
#X msg 195 923 v fx puzzle on;
#X msg 199 950 v fx puzzle off;
#X floatatom 194 875 5 0 0 0 - - - 0;
#X msg 194 898 v fx puzzle \$1;
#X floatatom 23 879 5 0 0 0 - - - 0;
#X msg 23 902 v fx motionblur \$1;
#X obj 13 667 s message;
#X msg 35 598 v on;
#X msg 46 627 v off;
#X msg 93 600 v seq 1;
#X msg 103 629 v seq 0;
#X obj 184 643 s message;
#X msg 220 618 v fx movement2 off;
#X msg 216 591 v fx movement2 on;
#X msg 89 660 v next;
#X floatatom 24 728 5 0 0 0 - - - 0;
#X msg 33 778 v fx delay on;
#X msg 37 805 v fx delay off;
#X msg 24 751 v fx delay \$1;
#X obj 89 848 s message;
#X floatatom 199 741 5 0 0 0 - - - 0;
#X msg 204 816 v fx gain off;
#X msg 200 789 v fx gain on;
#X msg 199 764 v fx gain \$1;
#X obj 580 468 inlet;
#X obj 580 492 spigot 1;
#X obj 669 450 tgl 19 0 empty empty empty 0 -10 0 12 #fcfcfc #000000 #000000 0 1;
#X obj 198 693 random 100;
#X obj 198 717 - 50;
#X obj 256 867 random 9999;
#X obj 488 574 metro 400;
#X connect 0 0 1 0;
#X connect 4 0 6 1;
#X connect 5 0 1 1;
#X connect 7 0 10 0;
#X connect 8 0 9 0;
#X connect 8 0 24 0;
#X connect 10 0 9 1;
#X connect 10 1 22 0;
#X connect 12 0 17 0;
#X connect 13 0 15 0;
#X connect 14 0 2 0;
#X connect 15 0 14 0;
#X connect 16 0 12 0;
#X connect 17 0 13 0;
#X connect 18 0 20 0;
#X connect 19 0 18 0;
#X connect 20 0 16 0;
#X connect 21 0 9 2;
#X connect 22 0 19 0;
#X connect 25 0 24 1;
#X connect 28 0 27 0;
#X connect 29 0 27 0;
#X connect 30 0 27 0;
#X connect 31 0 27 0;
#X connect 32 0 33 0;
#X connect 33 0 27 0;
#X connect 34 0 35 0;
#X connect 35 0 27 0;
#X connect 37 0 36 0;
#X connect 38 0 36 0;
#X connect 39 0 36 0;
#X connect 40 0 36 0;
#X connect 42 0 41 0;
#X connect 43 0 41 0;
#X connect 44 0 36 0;
#X connect 45 0 48 0;
#X connect 46 0 49 0;
#X connect 47 0 49 0;
#X connect 48 0 49 0;
#X connect 50 0 53 0;
#X connect 51 0 49 0;
#X connect 52 0 49 0;
#X connect 53 0 49 0;
#X connect 54 0 55 0;
#X connect 56 0 55 1;
#X connect 56 0 60 0;
#X connect 57 0 58 0;
#X connect 58 0 50 0;
#X connect 59 0 32 0;
#X connect 60 0 57 0;
#X connect 60 0 59 0;
#X restore 195 181 pd main-visuals;
#N canvas 0 0 1919 944 main-audio 1;
#X obj 329 1323 dac~;
#X obj 335 1288 *~ 0.9;
#X obj 286 1112 heavybass~;
#X obj 331 977 bng 19 250 50 0 empty empty empty 0 -10 0 12 #fcfcfc #000000 #000000;
#N canvas 346 96 780 769 rseq 0;
#X obj 49 256 mseq;
#X obj 188 204 print;
#X obj 164 48 bng 15 250 50 0 empty empty empty 17 7 0 10 #fcfcfc #000000 #000000;
#X floatatom 229 1 5 0 0 0 - - - 0;
#X floatatom 232 82 5 0 0 0 - - - 0;
#X floatatom 246 157 5 0 0 0 - - - 0;
#X obj 188 179 randseq;
#X text 183 41 generate the sequence;
#X text 277 80 random max: the maximum value used in the random number generation;
#X text 287 157 seq length: the length of sequence;
#X text 276 223 randseq creates a list of numbers and - hyphen for rests;
#X listbox 165 258 81 0 0 0 - - - 0;
#X obj 171 230 list;
#X obj 19 19 inlet;
#X obj 141 11 inlet;
#X obj 49 281 outlet;
#X connect 0 0 15 0;
#X connect 2 0 6 0;
#X connect 3 0 6 1;
#X connect 4 0 6 2;
#X connect 5 0 6 3;
#X connect 6 0 1 0;
#X connect 6 0 12 0;
#X connect 6 0 0 1;
#X connect 12 0 11 0;
#X connect 13 0 0 0;
#X connect 14 0 2 0;
#X restore 289 1016 pd rseq;
#X obj 59 27 inlet;
#X floatatom 310 1080 5 0 0 0 - - - 0;
#X floatatom 349 1079 5 0 0 0 - - - 0;
#X floatatom 392 1074 5 0 0 0 - - - 0;
#N canvas 0 0 1919 944 beatslicer 0;
#N canvas 1 67 450 250 (subpatch) 0;
#X array \$0-sample-L 145986 float 2;
#X coords 0 1 145986 -1 448 100 1 0 0;
#X restore 178 124 graph;
#N canvas 1 67 450 250 (subpatch) 0;
#X array \$0-sample-R 145986 float 2;
#X coords 0 1 145986 -1 448 100 1 0 0;
#X restore 178 224 graph;
#X obj 179 334 hradio 14 1 0 32 empty empty empty 0 -8 0 10 #fcfcfc #000000 #000000 0;
#N canvas 0 0 1919 944 read-file 0;
#X obj 35 51 openpanel;
#X obj 35 241 soundfiler;
#X text 116 241 Read sample into array;
#X obj 68 125 symbol \$0-sample-L;
#X obj 35 179 pack s s s;
#X obj 102 149 symbol \$0-sample-R;
#X obj 35 86 t a b b;
#X msg 35 210 read -resize \$1 \$2 \$3;
#X obj 35 265 outlet sample-size;
#X obj 35 25 inlet open;
#X obj 139 73 print;
#X obj 154 22 inlet;
#X connect 0 0 6 0;
#X connect 0 0 10 0;
#X connect 1 0 8 0;
#X connect 3 0 4 1;
#X connect 4 0 7 0;
#X connect 5 0 4 2;
#X connect 6 0 4 0;
#X connect 6 1 3 0;
#X connect 6 2 5 0;
#X connect 7 0 1 0;
#X connect 9 0 0 0;
#X connect 11 0 6 0;
#X restore 672 249 pd read-file;
#X obj 115 126 bng 30 250 50 0 empty empty Open_file 35 7 0 10 #fcfcfc #000000 #000000;
#X floatatom 672 295 10 0 0 0 - - - 0;
#X obj 761 266 f 0;
#X obj 793 266 + 1;
#X floatatom 761 314 5 0 0 0 - - - 0;
#X obj 114 170 tgl 30 0 empty empty Play 35 7 0 10 #fcfcfc #000000 #000000 0 1;
#X obj 761 242 metro 200;
#X obj 825 236 expr ($f1 / 32) / 44.1;
#N canvas 0 0 1919 944 send-message-to-step 0;
#X obj 88 329 send;
#X obj 113 232 pack f \$0;
#X msg 113 261 symbol \$2-step-\$1;
#X obj 31 264 pack s f;
#X obj 84 233 f;
#X obj 30 165 t b b f;
#X obj 31 234 symbol;
#X obj 31 288 list trim;
#X obj 30 39 r \$0-step-to-message;
#X obj 339 39 r \$0-message-value;
#X obj 190 39 r \$0-message-type;
#X connect 1 0 2 0;
#X connect 2 0 0 1;
#X connect 3 0 7 0;
#X connect 4 0 3 1;
#X connect 5 0 6 0;
#X connect 5 1 4 0;
#X connect 5 2 1 0;
#X connect 6 0 3 0;
#X connect 7 0 0 0;
#X connect 8 0 5 0;
#X connect 9 0 4 1;
#X connect 10 0 6 1;
#X restore 672 410 pd send-message-to-step;
#X obj 694 69 t f b b;
#X msg 717 98 symbol step;
#X obj 761 290 mod 32;
#N canvas 0 0 1919 944 sample-player 0;
#X obj 85 489 tabread4~ \$0-sample-L;
#X obj 153 508 tabread4~ \$0-sample-R;
#X obj 84 437 line~;
#X obj 84 461 *~ 1;
#X obj 151 240 f;
#X obj 84 30 bng 15 250 50 0 empty \$0-trigger Trigger 17 7 0 10 #fcfcfc #000000 #000000;
#X msg 84 358 \$1 \, \$2 \$3;
#X obj 84 323 pack f f f;
#X obj 84 50 t b b;
#X obj 84 83 t b b;
#X obj 84 263 f;
#X obj 117 263 f;
#X obj 102 133 t f f;
#X obj 102 160 expr $f1;
#X obj 135 191 expr (float(1) / 32) + $f1;
#X obj 162 70 r \$0-start-pos;
#X obj 151 269 expr ($f1 / 32) / 44.1 * $f2;
#X obj 344 240 r \$0-pitch;
#X msg 174 358 \$2 \, \$1 \$3;
#X obj 84 397 spigot 1;
#X obj 154 397 spigot 0;
#X obj 282 335 r \$0-reverse;
#X obj 282 359 == 0;
#X obj 171 530 r \$0-on-off;
#X obj 154 603 *~;
#X obj 84 604 *~;
#X obj 171 576 line~;
#X obj 167 427 r \$0-file-size;
#X obj 178 216 r \$0-file-size;
#X obj 84 628 outlet~;
#X obj 154 628 outlet~;
#X msg 171 552 \$1;
#X obj 162 93 expr int($f1 * 32) / 32;
#X obj 176 125 expr int($f1 * 32) / 32;
#X connect 0 0 25 0;
#X connect 1 0 24 0;
#X connect 2 0 3 0;
#X connect 3 0 0 0;
#X connect 3 0 1 0;
#X connect 4 0 16 0;
#X connect 5 0 8 0;
#X connect 6 0 19 0;
#X connect 7 0 6 0;
#X connect 7 0 18 0;
#X connect 8 0 9 0;
#X connect 8 1 4 0;
#X connect 9 0 10 0;
#X connect 9 1 11 0;
#X connect 10 0 7 0;
#X connect 11 0 7 1;
#X connect 12 0 13 0;
#X connect 12 1 14 0;
#X connect 13 0 10 1;
#X connect 14 0 11 1;
#X connect 15 0 32 0;
#X connect 16 0 7 2;
#X connect 17 0 16 1;
#X connect 18 0 20 0;
#X connect 19 0 2 0;
#X connect 20 0 2 0;
#X connect 21 0 22 0;
#X connect 21 0 20 1;
#X connect 22 0 19 1;
#X connect 23 0 31 0;
#X connect 24 0 30 0;
#X connect 25 0 29 0;
#X connect 26 0 24 1;
#X connect 26 0 25 1;
#X connect 27 0 3 1;
#X connect 28 0 4 1;
#X connect 31 0 26 0;
#X connect 32 0 12 0;
#X restore 745 463 pd sample-player;
#X obj 704 345 s \$0-file-size;
#X obj 825 208 r \$0-file-size;
#X msg 740 128 0;
#N canvas 416 367 460 592 control-all 0;
#X obj 137 443 until;
#X msg 137 386 32;
#X obj 137 497 f 0;
#X obj 172 497 + 1;
#X msg 155 468 0;
#X obj 137 410 t f b;
#X msg 223 351 symbol pitch;
#X obj 100 36 vsl 14 80 0.1 1 0 0 empty empty empty -56 30 0 10 #fcfcfc #000000 #000000 0 1;
#X obj 197 238 t b b f;
#X obj 100 119 tgl 14 0 empty empty empty -68 7 0 10 #fcfcfc #000000 #000000 0 1;
#X obj 263 237 t b b f;
#X msg 240 390 symbol on-off;
#X msg 230 370 symbol reverse;
#X msg 213 331 symbol start-pos;
#X obj 216 438 t a;
#X obj 295 290 t f;
#X obj 100 20 tgl 14 0 empty empty empty -62 7 0 10 #fcfcfc #000000 #000000 0 1;
#X obj 323 237 t b b f;
#X obj 137 292 t b;
#X obj 100 135 vsl 14 80 0 1 0 0 empty empty empty -80 30 0 10 #fcfcfc #000000 #000000 0 1;
#X obj 137 238 t b b f;
#X obj 137 551 s \$0-step-to-message;
#X obj 216 521 s \$0-message-type;
#X obj 295 491 s \$0-message-value;
#X connect 0 0 2 0;
#X connect 1 0 5 0;
#X connect 2 0 3 0;
#X connect 2 0 21 0;
#X connect 3 0 2 1;
#X connect 4 0 2 1;
#X connect 5 0 0 0;
#X connect 5 1 4 0;
#X connect 6 0 14 0;
#X connect 7 0 8 0;
#X connect 8 0 18 0;
#X connect 8 1 6 0;
#X connect 8 2 15 0;
#X connect 9 0 10 0;
#X connect 10 0 18 0;
#X connect 10 1 12 0;
#X connect 10 2 15 0;
#X connect 11 0 14 0;
#X connect 12 0 14 0;
#X connect 13 0 14 0;
#X connect 14 0 22 0;
#X connect 15 0 23 0;
#X connect 16 0 17 0;
#X connect 17 0 18 0;
#X connect 17 1 11 0;
#X connect 17 2 15 0;
#X connect 18 0 1 0;
#X connect 19 0 20 0;
#X connect 20 0 18 0;
#X connect 20 1 13 0;
#X connect 20 2 15 0;
#X coords 0 -1 1 1 14 200 2 100 20;
#X restore 155 358 pd control-all;
#X obj 694 211 s \$0-step-to-message;
#X obj 717 181 s \$0-message-type;
#X obj 740 155 s \$0-message-value;
#X obj 131 358 bng 14 250 50 0 \$0-randomize-on-off empty empty 17 7 0 10 #fcfcfc #000000 #000000;
#X obj 131 382 bng 14 250 50 0 \$0-randomize-pitch empty empty 17 7 0 10 #fcfcfc #000000 #000000;
#X obj 131 457 bng 14 250 50 0 \$0-randomize-reverse empty empty 17 7 0 10 #fcfcfc #000000 #000000;
#X obj 131 481 bng 14 250 50 0 \$0-randomize-start-pos empty empty 17 7 0 10 #fcfcfc #000000 #000000;
#N canvas 0 0 1919 944 randomize 0;
#X obj 66 23 r \$0-randomize-start-pos;
#X obj 66 345 until;
#X msg 66 288 32;
#X obj 66 399 f 0;
#X obj 101 399 + 1;
#X msg 84 370 0;
#X obj 66 312 t f b;
#X msg 464 234 symbol pitch;
#X msg 624 234 symbol on-off;
#X msg 294 234 symbol reverse;
#X msg 112 234 symbol start-pos;
#X obj 66 542 s \$0-step-to-message;
#X obj 225 489 s \$0-message-type;
#X obj 155 516 s \$0-message-value;
#X msg 89 171 80;
#X obj 66 423 t f b;
#X obj 155 463 random;
#X obj 155 487 /;
#X obj 89 209 t f;
#X obj 248 23 r \$0-randomize-reverse;
#X obj 66 47 t b b b;
#X obj 225 461 t a;
#X obj 66 111 t b;
#X obj 248 47 t b b b;
#X obj 418 47 t b b b;
#X obj 418 23 r \$0-randomize-pitch;
#X obj 578 47 t b b b;
#X obj 578 23 r \$0-randomize-on-off;
#X obj 138 430 bng 15 250 50 0 empty empty empty 17 7 0 10 #fcfcfc #000000 #000000;
#X obj 190 336 t b b;
#X msg 222 359 2;
#X msg 190 360 1;
#X obj 271 169 t b;
#X connect 0 0 20 0;
#X connect 1 0 3 0;
#X connect 2 0 6 0;
#X connect 3 0 4 0;
#X connect 3 0 15 0;
#X connect 4 0 3 1;
#X connect 5 0 3 1;
#X connect 6 0 1 0;
#X connect 6 1 5 0;
#X connect 7 0 21 0;
#X connect 8 0 21 0;
#X connect 9 0 21 0;
#X connect 10 0 21 0;
#X connect 14 0 18 0;
#X connect 15 0 11 0;
#X connect 15 1 16 0;
#X connect 16 0 17 0;
#X connect 17 0 13 0;
#X connect 18 0 17 1;
#X connect 18 0 16 1;
#X connect 19 0 23 0;
#X connect 20 0 22 0;
#X connect 20 1 14 0;
#X connect 20 2 10 0;
#X connect 21 0 12 0;
#X connect 22 0 2 0;
#X connect 23 0 22 0;
#X connect 23 1 32 0;
#X connect 23 2 9 0;
#X connect 24 0 22 0;
#X connect 24 1 14 0;
#X connect 24 2 7 0;
#X connect 25 0 24 0;
#X connect 26 0 22 0;
#X connect 26 1 32 0;
#X connect 26 2 8 0;
#X connect 27 0 26 0;
#X connect 28 0 16 0;
#X connect 29 0 31 0;
#X connect 29 1 30 0;
#X connect 30 0 16 1;
#X connect 31 0 17 1;
#X connect 32 0 29 0;
#X restore 672 429 pd randomize;
#N canvas 0 0 1919 944 init 0;
#X obj 66 345 until;
#X msg 66 288 32;
#X obj 66 399 f 0;
#X obj 101 399 + 1;
#X msg 84 370 0;
#X obj 66 312 t f b;
#X msg 464 234 symbol pitch;
#X msg 624 234 symbol on-off;
#X msg 294 234 symbol reverse;
#X msg 112 234 symbol start-pos;
#X obj 66 542 s \$0-step-to-message;
#X obj 225 489 s \$0-message-type;
#X obj 155 516 s \$0-message-value;
#X obj 89 209 t f;
#X obj 66 47 t b b b;
#X obj 225 391 t a;
#X obj 66 111 t b;
#X obj 248 47 t b b b;
#X obj 418 47 t b b b;
#X obj 578 47 t b b b;
#X obj 66 23 r \$0-init-start-pos;
#X obj 248 23 r \$0-init-reverse;
#X obj 418 23 r \$0-init-pitch;
#X obj 578 23 r \$0-init-on-off;
#X msg 271 138 0;
#X msg 441 138 1;
#X msg 601 138 1;
#X obj 203 420 sel start-pos;
#X obj 155 479 spigot;
#X msg 203 444 1;
#X msg 291 446 0;
#X obj 66 423 t f f;
#X text 306 421 <-- Special case for start-pos;
#X obj 98 448 expr $f1 / 32;
#X connect 0 0 2 0;
#X connect 1 0 5 0;
#X connect 2 0 3 0;
#X connect 2 0 31 0;
#X connect 3 0 2 1;
#X connect 4 0 2 1;
#X connect 5 0 0 0;
#X connect 5 1 4 0;
#X connect 6 0 15 0;
#X connect 7 0 15 0;
#X connect 8 0 15 0;
#X connect 9 0 15 0;
#X connect 13 0 12 0;
#X connect 14 0 16 0;
#X connect 14 2 9 0;
#X connect 15 0 11 0;
#X connect 15 0 27 0;
#X connect 16 0 1 0;
#X connect 17 0 16 0;
#X connect 17 1 24 0;
#X connect 17 2 8 0;
#X connect 18 0 16 0;
#X connect 18 1 25 0;
#X connect 18 2 6 0;
#X connect 19 0 16 0;
#X connect 19 1 26 0;
#X connect 19 2 7 0;
#X connect 20 0 14 0;
#X connect 21 0 17 0;
#X connect 22 0 18 0;
#X connect 23 0 19 0;
#X connect 24 0 13 0;
#X connect 25 0 13 0;
#X connect 26 0 13 0;
#X connect 27 0 29 0;
#X connect 27 1 30 0;
#X connect 28 0 12 0;
#X connect 29 0 28 1;
#X connect 30 0 28 1;
#X connect 31 0 10 0;
#X connect 31 1 33 0;
#X connect 33 0 28 0;
#X restore 672 448 pd init;
#X obj 111 358 bng 14 250 50 0 \$0-init-on-off empty empty 17 7 0 10 #fcfcfc #000000 #000000;
#X obj 111 382 bng 14 250 50 0 \$0-init-pitch empty empty 17 7 0 10 #fcfcfc #000000 #000000;
#X obj 111 457 bng 14 250 50 0 \$0-init-reverse empty empty 17 7 0 10 #fcfcfc #000000 #000000;
#X obj 111 481 bng 14 250 50 0 \$0-init-start-pos empty empty 17 7 0 10 #fcfcfc #000000 #000000;
#X obj 662 19 t f f;
#X obj 662 43 s \$0-trigger;
#X obj 672 366 s \$0-init;
#X obj 672 323 t b f;
#X obj 672 273 f;
#X obj 404 33 loadbang;
#X obj 745 546 outlet~;
#X obj 108 69 inlet;
#X obj 146 69 inlet;
#X obj 892 118 cnv 15 100 60 empty empty empty 20 12 0 14 #e0e0e0 #404040 0;
#X obj 907 545 outlet;
#X obj 746 513 +~, f 16;
#X obj 193 63 inlet;
#X obj 854 544 outlet;
#N canvas 158 371 1009 370 controls 0;
#X obj 100 100 step \$0 0;
#X obj 114 100 step \$0 1;
#X obj 128 100 step \$0 2;
#X obj 142 100 step \$0 3;
#X obj 156 100 step \$0 4;
#X obj 170 100 step \$0 5;
#X obj 184 100 step \$0 6;
#X obj 198 100 step \$0 7;
#X obj 212 100 step \$0 8;
#X obj 226 100 step \$0 9;
#X obj 240 100 step \$0 10;
#X obj 254 100 step \$0 11;
#X obj 268 100 step \$0 12;
#X obj 282 100 step \$0 13;
#X obj 296 100 step \$0 14;
#X obj 310 100 step \$0 15;
#X obj 324 100 step \$0 16;
#X obj 338 100 step \$0 17;
#X obj 352 100 step \$0 18;
#X obj 366 100 step \$0 19;
#X obj 380 100 step \$0 20;
#X obj 394 100 step \$0 21;
#X obj 408 100 step \$0 22;
#X obj 422 100 step \$0 23;
#X obj 436 100 step \$0 24;
#X obj 450 100 step \$0 25;
#X obj 464 100 step \$0 26;
#X obj 478 100 step \$0 27;
#X obj 492 100 step \$0 28;
#X obj 506 100 step \$0 29;
#X obj 520 100 step \$0 30;
#X obj 534 100 step \$0 31;
#X coords 0 -1 1 1 448 200 2 100 100;
#X restore 179 358 pd controls;
#X obj 258 61 inlet;
#X obj 319 57 inlet;
#X obj 422 67 inlet;
#X obj 575 42 inlet;
#X connect 2 0 34 0;
#X connect 3 0 38 0;
#X connect 4 0 3 0;
#X connect 5 0 37 0;
#X connect 6 0 7 0;
#X connect 6 0 15 0;
#X connect 7 0 6 1;
#X connect 8 0 2 0;
#X connect 9 0 10 0;
#X connect 10 0 6 0;
#X connect 10 0 44 0;
#X connect 11 0 10 1;
#X connect 11 0 47 0;
#X connect 13 0 21 0;
#X connect 13 1 14 0;
#X connect 13 2 19 0;
#X connect 14 0 22 0;
#X connect 15 0 8 0;
#X connect 16 0 45 0;
#X connect 16 1 45 1;
#X connect 18 0 11 0;
#X connect 19 0 23 0;
#X connect 34 0 35 0;
#X connect 34 1 13 0;
#X connect 37 0 36 0;
#X connect 37 1 17 0;
#X connect 38 0 5 0;
#X connect 39 0 30 0;
#X connect 39 0 31 0;
#X connect 39 0 32 0;
#X connect 39 0 33 0;
#X connect 41 0 4 0;
#X connect 42 0 9 0;
#X connect 45 0 40 0;
#X connect 46 0 2 0;
#X connect 49 0 30 0;
#X connect 49 0 31 0;
#X connect 49 0 32 0;
#X connect 49 0 33 0;
#X connect 50 0 25 0;
#X connect 50 0 27 0;
#X connect 51 0 27 0;
#X connect 52 0 3 1;
#X coords 0 -1 1 1 540 470 1 100 100;
#X restore 382 155 pd beatslicer;
#X obj 905 644 bng 15 250 50 0 empty empty empty 17 7 0 10 #fcfcfc #000000 #000000;
#X obj 915 1023 spigot 1;
#X obj 647 129 bng 19 250 50 0 empty empty empty 0 -10 0 12 #fcfcfc #000000 #000000;
#X obj 976 588 tgl 19 0 empty empty empty 0 -10 0 12 #fcfcfc #000000 #000000 0 1;
#X obj 734 125 bng 19 250 50 0 empty empty empty 0 -10 0 12 #fcfcfc #000000 #000000;
#X obj 829 126 bng 19 250 50 0 empty empty empty 0 -10 0 12 #fcfcfc #000000 #000000;
#X msg 851 677 0;
#X msg 926 99 /home/monz/Desktop/janky/sounds/breaks/cw_amen19_172.wav;
#X floatatom 1051 486 5 0 0 0 - - - 0;
#X msg 1051 354 60 \, 62 \, 65 \, 67;
#X floatatom 1309 325 5 0 0 0 - - - 0;
#X msg 1165 353 60 \, 63 \, 65 \, 67;
#X obj 1349 250 + 1;
#X obj 1051 272 random 2;
#X obj 1051 297 sel 0 1, f 33;
#X obj 1051 149 tgl 15 0 empty empty empty 17 7 0 10 #fcfcfc #000000 #000000 0 1;
#X obj 1312 249 f 0;
#X obj 1311 275 % 250;
#X obj 1311 300 + 100;
#X obj 1051 514 trianglepoly~;
#X obj 1193 509 trianglepoly~;
#X floatatom 1195 483 5 0 0 0 - - - 0;
#X msg 1365 422 51;
#X msg 1405 422 55;
#X msg 1454 422 53;
#X msg 1499 422 58;
#X obj 1368 369 random 4;
#X obj 1370 394 sel 0 1 2 3, f 25;
#X obj 1369 294 random 100;
#X obj 1369 319 > 90;
#X obj 1369 344 sel 1;
#X obj 1413 348 bng 15 250 50 0 empty empty empty 17 7 0 10 #fcfcfc #000000 #000000;
#X floatatom 1021 777 5 0 0 0 - - - 0;
#X obj 1038 823 bng 15 250 50 0 empty empty empty 17 7 0 10 #fcfcfc #000000 #000000;
#X obj 1167 788 pdcontrol;
#X msg 1167 760 dir;
#X obj 1167 733 bng 15 250 50 0 empty empty empty 17 7 0 10 #fcfcfc #000000 #000000;
#X obj 1104 844 playdir~;
#X obj 1206 735 loadbang;
#X obj 1403 974 random 30;
#X obj 1403 999 + 30;
#X floatatom 1437 1066 5 0 0 0 - - - 0;
#X floatatom 1471 1094 5 0 0 0 - - - 0;
#X floatatom 1505 1134 5 0 0 0 - - - 0;
#X obj 1403 1164 filtfm~, f 15;
#X obj 1611 1126 bng 19 250 50 0 empty empty empty 0 -10 0 12 #fcfcfc #000000 #000000;
#N canvas 346 96 780 769 rseq 0;
#X obj 49 256 mseq;
#X obj 188 204 print;
#X obj 164 48 bng 15 250 50 0 empty empty empty 17 7 0 10 #fcfcfc #000000 #000000;
#X floatatom 229 1 5 0 0 0 - - - 0;
#X floatatom 232 82 5 0 0 0 - - - 0;
#X floatatom 246 157 5 0 0 0 - - - 0;
#X obj 188 179 randseq;
#X text 183 41 generate the sequence;
#X text 277 80 random max: the maximum value used in the random number generation;
#X text 287 157 seq length: the length of sequence;
#X text 276 223 randseq creates a list of numbers and - hyphen for rests;
#X listbox 165 258 81 0 0 0 - - - 0;
#X obj 171 230 list;
#X obj 19 19 inlet;
#X obj 141 11 inlet;
#X obj 49 281 outlet;
#X connect 0 0 15 0;
#X connect 2 0 6 0;
#X connect 3 0 6 1;
#X connect 4 0 6 2;
#X connect 5 0 6 3;
#X connect 6 0 1 0;
#X connect 6 0 12 0;
#X connect 6 0 0 1;
#X connect 12 0 11 0;
#X connect 13 0 0 0;
#X connect 14 0 2 0;
#X restore 1569 1165 pd rseq;
#X msg 1166 815 \$1/sounds/wavs;
#X obj 1015 747 random 9999;
#X obj 1101 689 bng 19 250 50 0 empty empty empty 0 -10 0 12 #fcfcfc #000000 #000000;
#X obj 1051 171 spigot 1;
#X obj 1182 570 - 12;
#X floatatom 1237 161 5 0 0 0 - - - 0;
#X obj 1104 868 *~ 2;
#X obj 1719 804 spigot;
#X obj 1640 804 spigot;
#X obj 1719 834 print cooked;
#X obj 1640 834 print raw;
#X obj 1687 732 bonk~;
#X obj 1679 779 tgl 19 0 empty empty empty 17 7 0 10 #dfdfdf #000000 #000000 0 1;
#X obj 1758 779 tgl 19 0 empty empty empty 17 7 0 10 #dfdfdf #000000 #000000 0 1;
#X obj 1436 839 bng 19 250 50 0 empty empty empty 0 -10 0 12 #fcfcfc #000000 #000000;
#X obj 296 1158 *~ 0.3;
#X obj 1107 894 *~;
#X msg 1163 893 1;
#X obj 1649 428 pdcontrol;
#X msg 1649 400 dir;
#X obj 1649 373 bng 15 250 50 0 empty empty empty 17 7 0 10 #fcfcfc #000000 #000000;
#X obj 1586 484 playdir~;
#X obj 1652 344 loadbang;
#X msg 1648 455 \$1/sounds/misc2;
#X floatatom 1585 241 5 0 0 0 - - - 0;
#X obj 1445 901 spigot 1;
#X obj 1493 841 tgl 19 0 empty empty empty 0 -10 0 12 #fcfcfc #000000 #000000 0 1;
#X obj 1586 508 *~ 0.3;
#X obj 1709 207 pdcontrol;
#X msg 1709 179 dir;
#X obj 1709 152 bng 15 250 50 0 empty empty empty 17 7 0 10 #fcfcfc #000000 #000000;
#X obj 1646 263 playdir~;
#X obj 1712 123 loadbang;
#X floatatom 1645 20 5 0 0 0 - - - 0;
#X obj 1646 287 *~ 0.3;
#X msg 1708 234 \$1/sounds/misc;
#X obj 1490 102 pdcontrol;
#X msg 1490 74 dir;
#X obj 1490 47 bng 15 250 50 0 empty empty empty 17 7 0 10 #fcfcfc #000000 #000000;
#X obj 1427 158 playdir~;
#X obj 1493 18 loadbang;
#X floatatom 1416 112 5 0 0 0 - - - 0;
#X obj 1427 182 *~ 0.3;
#X msg 1489 129 \$1/sounds/rides;
#X msg 1199 895 0;
#X obj 365 1181 *~ 0.4;
#X obj 1754 357 throw~ main;
#X obj 231 1249 catch~ main;
#X msg 1672 674 thresh 3.5 8;
#X obj 416 1246 *~ 0.7;
#X obj 1676 590 loadbang;
#X obj 1395 85 random 100;
#X obj 104 703 bng 19 250 50 0 empty empty empty 0 -10 0 12 #fcfcfc #000000 #000000;
#N canvas 346 96 780 769 rseq 0;
#X obj 49 256 mseq;
#X obj 188 204 print;
#X obj 164 48 bng 15 250 50 0 empty empty empty 17 7 0 10 #fcfcfc #000000 #000000;
#X floatatom 229 1 5 0 0 0 - - - 0;
#X floatatom 232 82 5 0 0 0 - - - 0;
#X floatatom 246 157 5 0 0 0 - - - 0;
#X obj 188 179 randseq;
#X text 183 41 generate the sequence;
#X text 277 80 random max: the maximum value used in the random number generation;
#X text 287 157 seq length: the length of sequence;
#X text 276 223 randseq creates a list of numbers and - hyphen for rests;
#X listbox 165 258 81 0 0 0 - - - 0;
#X obj 171 230 list;
#X obj 19 19 inlet;
#X obj 141 11 inlet;
#X obj 49 281 outlet;
#X connect 0 0 15 0;
#X connect 2 0 6 0;
#X connect 3 0 6 1;
#X connect 4 0 6 2;
#X connect 5 0 6 3;
#X connect 6 0 1 0;
#X connect 6 0 12 0;
#X connect 6 0 0 1;
#X connect 12 0 11 0;
#X connect 13 0 0 0;
#X connect 14 0 2 0;
#X restore 62 742 pd rseq;
#X obj 75 826 kick~;
#X obj 129 827 snare~;
#X obj 67 541 tgl 19 0 empty empty empty 0 -10 0 12 #fcfcfc #000000 #000000 0 1;
#X obj 72 916 throw~ main;
#X obj 83 784 bng 19 250 50 0 empty empty empty 0 -10 0 12 #fcfcfc #000000 #000000;
#X obj 183 700 bng 19 250 50 0 empty empty empty 0 -10 0 12 #fcfcfc #000000 #000000;
#N canvas 346 96 780 769 rseq 0;
#X obj 49 256 mseq;
#X obj 188 204 print;
#X obj 164 48 bng 15 250 50 0 empty empty empty 17 7 0 10 #fcfcfc #000000 #000000;
#X floatatom 229 1 5 0 0 0 - - - 0;
#X floatatom 232 82 5 0 0 0 - - - 0;
#X floatatom 246 157 5 0 0 0 - - - 0;
#X obj 188 179 randseq;
#X text 183 41 generate the sequence;
#X text 277 80 random max: the maximum value used in the random number generation;
#X text 287 157 seq length: the length of sequence;
#X text 276 223 randseq creates a list of numbers and - hyphen for rests;
#X listbox 165 258 81 0 0 0 - - - 0;
#X obj 171 230 list;
#X obj 19 19 inlet;
#X obj 141 11 inlet;
#X obj 49 281 outlet;
#X connect 0 0 15 0;
#X connect 2 0 6 0;
#X connect 3 0 6 1;
#X connect 4 0 6 2;
#X connect 5 0 6 3;
#X connect 6 0 1 0;
#X connect 6 0 12 0;
#X connect 6 0 0 1;
#X connect 12 0 11 0;
#X connect 13 0 0 0;
#X connect 14 0 2 0;
#X restore 141 739 pd rseq;
#X obj 162 781 bng 19 250 50 0 empty empty empty 0 -10 0 12 #fcfcfc #000000 #000000;
#X obj 190 508 bng 19 250 50 0 empty empty empty 0 -10 0 12 #fcfcfc #000000 #000000;
#X obj 207 829 hihat~;
#X obj 258 696 bng 19 250 50 0 empty empty empty 0 -10 0 12 #fcfcfc #000000 #000000;
#N canvas 346 96 780 769 rseq 0;
#X obj 49 256 mseq;
#X obj 188 204 print;
#X obj 164 48 bng 15 250 50 0 empty empty empty 17 7 0 10 #fcfcfc #000000 #000000;
#X floatatom 229 1 5 0 0 0 - - - 0;
#X floatatom 232 82 5 0 0 0 - - - 0;
#X floatatom 246 157 5 0 0 0 - - - 0;
#X obj 188 179 randseq;
#X text 183 41 generate the sequence;
#X text 277 80 random max: the maximum value used in the random number generation;
#X text 287 157 seq length: the length of sequence;
#X text 276 223 randseq creates a list of numbers and - hyphen for rests;
#X listbox 165 258 81 0 0 0 - - - 0;
#X obj 171 230 list;
#X obj 19 19 inlet;
#X obj 141 11 inlet;
#X obj 49 281 outlet;
#X connect 0 0 15 0;
#X connect 2 0 6 0;
#X connect 3 0 6 1;
#X connect 4 0 6 2;
#X connect 5 0 6 3;
#X connect 6 0 1 0;
#X connect 6 0 12 0;
#X connect 6 0 0 1;
#X connect 12 0 11 0;
#X connect 13 0 0 0;
#X connect 14 0 2 0;
#X restore 216 735 pd rseq;
#X obj 237 777 bng 19 250 50 0 empty empty empty 0 -10 0 12 #fcfcfc #000000 #000000;
#X obj 60 577 metro 111;
#X obj 331 695 bng 19 250 50 0 empty empty empty 0 -10 0 12 #fcfcfc #000000 #000000;
#N canvas 346 96 780 769 rseq 0;
#X obj 49 256 mseq;
#X obj 188 204 print;
#X obj 164 48 bng 15 250 50 0 empty empty empty 17 7 0 10 #fcfcfc #000000 #000000;
#X floatatom 229 1 5 0 0 0 - - - 0;
#X floatatom 232 82 5 0 0 0 - - - 0;
#X floatatom 246 157 5 0 0 0 - - - 0;
#X obj 188 179 randseq;
#X text 183 41 generate the sequence;
#X text 277 80 random max: the maximum value used in the random number generation;
#X text 287 157 seq length: the length of sequence;
#X text 276 223 randseq creates a list of numbers and - hyphen for rests;
#X listbox 165 258 81 0 0 0 - - - 0;
#X obj 171 230 list;
#X obj 19 19 inlet;
#X obj 141 11 inlet;
#X obj 49 281 outlet;
#X connect 0 0 15 0;
#X connect 2 0 6 0;
#X connect 3 0 6 1;
#X connect 4 0 6 2;
#X connect 5 0 6 3;
#X connect 6 0 1 0;
#X connect 6 0 12 0;
#X connect 6 0 0 1;
#X connect 12 0 11 0;
#X connect 13 0 0 0;
#X connect 14 0 2 0;
#X restore 289 734 pd rseq;
#X obj 310 776 bng 19 250 50 0 empty empty empty 0 -10 0 12 #fcfcfc #000000 #000000;
#X obj 411 686 bng 19 250 50 0 empty empty empty 0 -10 0 12 #fcfcfc #000000 #000000;
#N canvas 346 96 780 769 rseq 0;
#X obj 49 256 mseq;
#X obj 188 204 print;
#X obj 164 48 bng 15 250 50 0 empty empty empty 17 7 0 10 #fcfcfc #000000 #000000;
#X floatatom 229 1 5 0 0 0 - - - 0;
#X floatatom 232 82 5 0 0 0 - - - 0;
#X floatatom 246 157 5 0 0 0 - - - 0;
#X obj 188 179 randseq;
#X text 183 41 generate the sequence;
#X text 277 80 random max: the maximum value used in the random number generation;
#X text 287 157 seq length: the length of sequence;
#X text 276 223 randseq creates a list of numbers and - hyphen for rests;
#X listbox 165 258 81 0 0 0 - - - 0;
#X obj 171 230 list;
#X obj 19 19 inlet;
#X obj 141 11 inlet;
#X obj 49 281 outlet;
#X connect 0 0 15 0;
#X connect 2 0 6 0;
#X connect 3 0 6 1;
#X connect 4 0 6 2;
#X connect 5 0 6 3;
#X connect 6 0 1 0;
#X connect 6 0 12 0;
#X connect 6 0 0 1;
#X connect 12 0 11 0;
#X connect 13 0 0 0;
#X connect 14 0 2 0;
#X restore 369 725 pd rseq;
#X obj 390 767 bng 19 250 50 0 empty empty empty 0 -10 0 12 #fcfcfc #000000 #000000;
#X obj 484 685 bng 19 250 50 0 empty empty empty 0 -10 0 12 #fcfcfc #000000 #000000;
#N canvas 346 96 780 769 rseq 0;
#X obj 49 256 mseq;
#X obj 188 204 print;
#X obj 164 48 bng 15 250 50 0 empty empty empty 17 7 0 10 #fcfcfc #000000 #000000;
#X floatatom 229 1 5 0 0 0 - - - 0;
#X floatatom 232 82 5 0 0 0 - - - 0;
#X floatatom 246 157 5 0 0 0 - - - 0;
#X obj 188 179 randseq;
#X text 183 41 generate the sequence;
#X text 277 80 random max: the maximum value used in the random number generation;
#X text 287 157 seq length: the length of sequence;
#X text 276 223 randseq creates a list of numbers and - hyphen for rests;
#X listbox 165 258 81 0 0 0 - - - 0;
#X obj 171 230 list;
#X obj 19 19 inlet;
#X obj 141 11 inlet;
#X obj 49 281 outlet;
#X connect 0 0 15 0;
#X connect 2 0 6 0;
#X connect 3 0 6 1;
#X connect 4 0 6 2;
#X connect 5 0 6 3;
#X connect 6 0 1 0;
#X connect 6 0 12 0;
#X connect 6 0 0 1;
#X connect 12 0 11 0;
#X connect 13 0 0 0;
#X connect 14 0 2 0;
#X restore 442 724 pd rseq;
#X obj 463 766 bng 19 250 50 0 empty empty empty 0 -10 0 12 #fcfcfc #000000 #000000;
#X obj 568 691 bng 19 250 50 0 empty empty empty 0 -10 0 12 #fcfcfc #000000 #000000;
#N canvas 346 96 780 769 rseq 0;
#X obj 49 256 mseq;
#X obj 188 204 print;
#X obj 164 48 bng 15 250 50 0 empty empty empty 17 7 0 10 #fcfcfc #000000 #000000;
#X floatatom 229 1 5 0 0 0 - - - 0;
#X floatatom 232 82 5 0 0 0 - - - 0;
#X floatatom 246 157 5 0 0 0 - - - 0;
#X obj 188 179 randseq;
#X text 183 41 generate the sequence;
#X text 277 80 random max: the maximum value used in the random number generation;
#X text 287 157 seq length: the length of sequence;
#X text 276 223 randseq creates a list of numbers and - hyphen for rests;
#X listbox 165 258 81 0 0 0 - - - 0;
#X obj 171 230 list;
#X obj 19 19 inlet;
#X obj 141 11 inlet;
#X obj 49 281 outlet;
#X connect 0 0 15 0;
#X connect 2 0 6 0;
#X connect 3 0 6 1;
#X connect 4 0 6 2;
#X connect 5 0 6 3;
#X connect 6 0 1 0;
#X connect 6 0 12 0;
#X connect 6 0 0 1;
#X connect 12 0 11 0;
#X connect 13 0 0 0;
#X connect 14 0 2 0;
#X restore 526 730 pd rseq;
#X obj 547 772 bng 19 250 50 0 empty empty empty 0 -10 0 12 #fcfcfc #000000 #000000;
#X obj 301 833 clap~;
#X obj 654 699 bng 19 250 50 0 empty empty empty 0 -10 0 12 #fcfcfc #000000 #000000;
#N canvas 346 96 780 769 rseq 0;
#X obj 49 256 mseq;
#X obj 188 204 print;
#X obj 164 48 bng 15 250 50 0 empty empty empty 17 7 0 10 #fcfcfc #000000 #000000;
#X floatatom 229 1 5 0 0 0 - - - 0;
#X floatatom 232 82 5 0 0 0 - - - 0;
#X floatatom 246 157 5 0 0 0 - - - 0;
#X obj 188 179 randseq;
#X text 183 41 generate the sequence;
#X text 277 80 random max: the maximum value used in the random number generation;
#X text 287 157 seq length: the length of sequence;
#X text 276 223 randseq creates a list of numbers and - hyphen for rests;
#X listbox 165 258 81 0 0 0 - - - 0;
#X obj 171 230 list;
#X obj 19 19 inlet;
#X obj 141 11 inlet;
#X obj 49 281 outlet;
#X connect 0 0 15 0;
#X connect 2 0 6 0;
#X connect 3 0 6 1;
#X connect 4 0 6 2;
#X connect 5 0 6 3;
#X connect 6 0 1 0;
#X connect 6 0 12 0;
#X connect 6 0 0 1;
#X connect 12 0 11 0;
#X connect 13 0 0 0;
#X connect 14 0 2 0;
#X restore 612 738 pd rseq;
#X obj 633 780 bng 19 250 50 0 empty empty empty 0 -10 0 12 #fcfcfc #000000 #000000;
#X obj 174 345 random 100;
#X obj 174 393 sel 1;
#X obj 174 424 bng 19 250 50 0 empty empty empty 0 -10 0 12 #fcfcfc #000000 #000000;
#X obj 174 448 random 1000;
#X obj 174 369 > 97;
#X obj 392 914 random 50;
#X obj 18 656 bng 19 250 50 0 empty empty empty 0 -10 0 12 #fcfcfc #000000 #000000;
#X floatatom 68 491 5 0 0 0 - - - 0;
#X floatatom 512 849 5 0 0 0 - - - 0;
#X obj 512 877 trianglepoly~;
#X obj 514 813 + 12;
#X obj 515 905 pipe;
#X floatatom 590 839 5 0 0 0 - - - 0;
#X obj 282 347 random 100;
#X obj 282 395 sel 1;
#X obj 282 426 bng 19 250 50 0 empty empty empty 0 -10 0 12 #fcfcfc #000000 #000000;
#X obj 282 450 random 1000;
#X obj 282 371 > 97;
#X obj 264 202 random 100;
#X obj 264 250 sel 1;
#X obj 264 281 bng 19 250 50 0 empty empty empty 0 -10 0 12 #fcfcfc #000000 #000000;
#X obj 264 305 random 1000;
#X obj 264 226 > 97;
#X obj 157 198 random 100;
#X obj 157 246 sel 1;
#X obj 148 274 bng 19 250 50 0 empty empty empty 0 -10 0 12 #fcfcfc #000000 #000000;
#X obj 157 301 random 1000;
#X obj 157 222 > 97;
#X obj 54 208 random 100;
#X obj 54 256 sel 1;
#X obj 45 284 bng 19 250 50 0 empty empty empty 0 -10 0 12 #fcfcfc #000000 #000000;
#X obj 54 311 random 1000;
#X obj 54 232 > 97;
#X obj 1380 1225 throw~ main;
#X obj 1372 1192 *~ 0.3;
#X obj 1381 655 random 100;
#X obj 1381 703 sel 1;
#X obj 1381 734 bng 19 250 50 0 empty empty empty 0 -10 0 12 #fcfcfc #000000 #000000;
#X obj 1381 758 random 1000;
#X obj 1381 679 > 97;
#X obj 1489 657 random 100;
#X obj 1489 705 sel 1;
#X obj 1489 736 bng 19 250 50 0 empty empty empty 0 -10 0 12 #fcfcfc #000000 #000000;
#X obj 1489 760 random 1000;
#X obj 1489 681 > 97;
#X connect 1 0 0 0;
#X connect 1 0 0 1;
#X connect 2 0 72 0;
#X connect 3 0 4 1;
#X connect 4 0 2 0;
#X connect 4 0 151 0;
#X connect 6 0 2 1;
#X connect 7 0 2 2;
#X connect 8 0 2 3;
#X connect 9 0 102 0;
#X connect 9 2 10 0;
#X connect 10 0 11 0;
#X connect 10 0 16 0;
#X connect 10 0 38 0;
#X connect 10 0 60 0;
#X connect 10 0 31 0;
#X connect 10 0 159 0;
#X connect 10 0 164 0;
#X connect 10 0 169 0;
#X connect 11 0 4 0;
#X connect 11 0 56 0;
#X connect 12 0 9 3;
#X connect 13 0 11 1;
#X connect 14 0 9 4;
#X connect 15 0 9 5;
#X connect 17 0 9 6;
#X connect 18 0 29 0;
#X connect 19 0 18 0;
#X connect 20 0 29 1;
#X connect 21 0 18 0;
#X connect 22 0 26 1;
#X connect 23 0 24 0;
#X connect 24 0 19 0;
#X connect 24 1 21 0;
#X connect 25 0 60 0;
#X connect 26 0 22 0;
#X connect 26 0 27 0;
#X connect 27 0 28 0;
#X connect 28 0 20 0;
#X connect 29 0 106 0;
#X connect 30 0 106 0;
#X connect 31 0 30 0;
#X connect 31 0 61 0;
#X connect 32 0 31 0;
#X connect 33 0 31 0;
#X connect 34 0 31 0;
#X connect 35 0 31 0;
#X connect 36 0 37 0;
#X connect 37 0 32 0;
#X connect 37 1 33 0;
#X connect 37 2 34 0;
#X connect 37 3 35 0;
#X connect 38 0 39 0;
#X connect 39 0 40 0;
#X connect 40 0 36 0;
#X connect 40 0 41 0;
#X connect 42 0 47 0;
#X connect 43 0 47 0;
#X connect 44 0 57 0;
#X connect 45 0 44 0;
#X connect 46 0 45 0;
#X connect 47 0 63 0;
#X connect 47 0 68 0;
#X connect 47 1 59 0;
#X connect 48 0 46 0;
#X connect 49 0 50 0;
#X connect 50 0 54 0;
#X connect 51 0 54 1;
#X connect 52 0 54 2;
#X connect 54 0 175 0;
#X connect 55 0 56 1;
#X connect 56 0 54 0;
#X connect 57 0 47 1;
#X connect 58 0 42 0;
#X connect 59 0 58 0;
#X connect 60 0 26 0;
#X connect 60 0 38 0;
#X connect 60 0 23 0;
#X connect 61 0 2 0;
#X connect 61 0 54 0;
#X connect 62 0 29 1;
#X connect 63 0 73 0;
#X connect 64 0 66 0;
#X connect 65 0 67 0;
#X connect 68 0 65 0;
#X connect 68 0 71 0;
#X connect 68 1 64 0;
#X connect 69 0 65 1;
#X connect 70 0 64 1;
#X connect 71 0 82 0;
#X connect 72 0 1 0;
#X connect 73 0 1 0;
#X connect 74 0 73 1;
#X connect 75 0 80 0;
#X connect 76 0 75 0;
#X connect 77 0 76 0;
#X connect 78 0 84 0;
#X connect 79 0 77 0;
#X connect 80 0 78 1;
#X connect 81 0 78 0;
#X connect 82 0 49 0;
#X connect 82 0 176 0;
#X connect 82 0 181 0;
#X connect 83 0 82 1;
#X connect 84 0 103 0;
#X connect 85 0 92 0;
#X connect 86 0 85 0;
#X connect 87 0 86 0;
#X connect 88 0 91 0;
#X connect 89 0 87 0;
#X connect 90 0 88 0;
#X connect 91 0 63 0;
#X connect 92 0 88 1;
#X connect 93 0 100 0;
#X connect 94 0 93 0;
#X connect 95 0 94 0;
#X connect 96 0 99 0;
#X connect 97 0 95 0;
#X connect 98 0 96 0;
#X connect 99 0 103 0;
#X connect 100 0 96 1;
#X connect 101 0 73 1;
#X connect 102 0 1 0;
#X connect 104 0 1 0;
#X connect 105 0 68 0;
#X connect 106 0 1 0;
#X connect 107 0 105 0;
#X connect 108 0 98 0;
#X connect 109 0 110 1;
#X connect 110 0 111 0;
#X connect 110 0 115 0;
#X connect 111 0 114 0;
#X connect 112 0 114 0;
#X connect 113 0 124 0;
#X connect 116 0 117 1;
#X connect 117 0 118 0;
#X connect 118 0 112 0;
#X connect 119 0 109 0;
#X connect 119 0 116 0;
#X connect 119 0 121 0;
#X connect 119 0 125 0;
#X connect 119 0 128 0;
#X connect 119 0 131 0;
#X connect 119 0 3 0;
#X connect 119 0 134 0;
#X connect 119 0 138 0;
#X connect 119 0 146 0;
#X connect 120 0 114 0;
#X connect 121 0 122 1;
#X connect 122 0 123 0;
#X connect 123 0 120 0;
#X connect 124 0 110 0;
#X connect 124 0 4 0;
#X connect 124 0 117 0;
#X connect 124 0 122 0;
#X connect 124 0 126 0;
#X connect 124 0 135 0;
#X connect 124 0 139 0;
#X connect 124 0 141 0;
#X connect 124 0 147 0;
#X connect 124 0 154 0;
#X connect 125 0 126 1;
#X connect 126 0 127 0;
#X connect 127 0 120 0;
#X connect 128 0 129 1;
#X connect 129 0 130 0;
#X connect 130 0 120 0;
#X connect 131 0 132 1;
#X connect 132 0 133 0;
#X connect 133 0 120 0;
#X connect 134 0 135 1;
#X connect 135 0 136 0;
#X connect 136 0 98 0;
#X connect 137 0 114 0;
#X connect 138 0 139 1;
#X connect 139 0 140 0;
#X connect 140 0 137 0;
#X connect 141 0 145 0;
#X connect 142 0 143 0;
#X connect 143 0 144 0;
#X connect 144 0 81 0;
#X connect 145 0 142 0;
#X connect 146 0 8 0;
#X connect 148 0 124 1;
#X connect 148 0 152 1;
#X connect 149 0 150 0;
#X connect 150 0 72 0;
#X connect 151 0 149 0;
#X connect 152 0 149 0;
#X connect 153 0 150 1;
#X connect 154 0 158 0;
#X connect 155 0 156 0;
#X connect 156 0 157 0;
#X connect 157 0 119 0;
#X connect 158 0 155 0;
#X connect 159 0 163 0;
#X connect 160 0 161 0;
#X connect 161 0 162 0;
#X connect 162 0 12 0;
#X connect 163 0 160 0;
#X connect 164 0 168 0;
#X connect 165 0 166 0;
#X connect 166 0 167 0;
#X connect 167 0 14 0;
#X connect 168 0 165 0;
#X connect 169 0 173 0;
#X connect 170 0 171 0;
#X connect 171 0 172 0;
#X connect 172 0 15 0;
#X connect 173 0 170 0;
#X connect 175 0 174 0;
#X connect 176 0 180 0;
#X connect 177 0 178 0;
#X connect 178 0 179 0;
#X connect 179 0 81 0;
#X connect 180 0 177 0;
#X connect 181 0 185 0;
#X connect 182 0 183 0;
#X connect 183 0 184 0;
#X connect 184 0 90 0;
#X connect 185 0 182 0;
#X restore 332 185 pd main-audio;
#X obj 193 156 tgl 19 0 empty empty empty 0 -10 0 12 #fcfcfc #000000 #000000 0 1;
#X obj 22 186 route transport speed;
#X floatatom 101 291 5 0 0 0 - - - 0;
#X obj 43 317 metro 100;
#X obj 43 342 s metro;
#X obj 254 13 route pz;
#N canvas 410 110 1400 656 pattern_router 0;
#X floatatom 582 374 5 0 0 0 - - - 0;
#X obj 19 204 r pattern1;
#X obj 98 204 r pattern2;
#X obj 174 204 r pattern3;
#X obj 46 -254 route p;
#X obj 20 238 spigot 0;
#X obj 84 238 spigot 0;
#X obj 148 238 spigot 0;
#X obj 24 -173 bng 19 250 50 0 empty empty empty 0 -10 0 12 #fcfcfc #000000 #000000;
#X obj 45 -278 inlet;
#X obj 580 396 outlet;
#X obj 46 -231 sel 0 1 2 3 4 5 6 7 8 9 10 11 12 13 14 15 16, f 79;
#X obj 212 238 spigot 0;
#X obj 276 238 spigot 0;
#X obj 340 238 spigot 0;
#X obj 211 180 r pattern4;
#X obj 290 180 r pattern5;
#X obj 366 180 r pattern6;
#X obj 404 236 spigot 0;
#X obj 468 236 spigot 0;
#X obj 532 236 spigot 0;
#X obj 596 236 spigot 0;
#X obj 660 236 spigot 0;
#X obj 724 236 spigot 0;
#X obj 403 202 r pattern7;
#X obj 482 202 r pattern8;
#X obj 558 202 r pattern9;
#X obj 595 178 r pattern10;
#X obj 680 178 r pattern11;
#X obj 761 178 r pattern12;
#X msg 47 -196 1 0 0 0 0 0 0 0 0 0 0 0 0 0 0 0;
#X msg 72 -174 0 1 0 0 0 0 0 0 0 0 0 0 0 0 0 0;
#X msg 92 -151 0 0 1 0 0 0 0 0 0 0 0 0 0 0 0 0;
#X msg 107 -128 0 0 0 1 0 0 0 0 0 0 0 0 0 0 0 0;
#X msg 116 -102 0 0 0 0 1 0 0 0 0 0 0 0 0 0 0 0;
#X msg 136 -79 0 0 0 0 0 1 0 0 0 0 0 0 0 0 0 0;
#X msg 151 -56 0 0 0 0 0 0 1 0 0 0 0 0 0 0 0 0;
#X msg 395 -196 0 0 0 0 0 0 0 1 0 0 0 0 0 0 0 0;
#X msg 394 -173 0 0 0 0 0 0 0 0 1 0 0 0 0 0 0 0;
#X msg 393 -151 0 0 0 0 0 0 0 0 0 1 0 0 0 0 0 0;
#X msg 393 -128 0 0 0 0 0 0 0 0 0 0 1 0 0 0 0 0;
#X msg 392 -104 0 0 0 0 0 0 0 0 0 0 0 1 0 0 0 0;
#X msg 391 -81 0 0 0 0 0 0 0 0 0 0 0 0 1 0 0 0;
#X msg 391 -58 0 0 0 0 0 0 0 0 0 0 0 0 0 1 0 0;
#X msg 392 -33 0 0 0 0 0 0 0 0 0 0 0 0 0 0 1 0;
#X msg 392 -8 0 0 0 0 0 0 0 0 0 0 0 0 0 0 0 1;
#X obj 790 236 spigot 0;
#X obj 854 236 spigot 0;
#X obj 918 236 spigot 0;
#X obj 982 236 spigot 0;
#X obj 789 209 r pattern13;
#X obj 865 174 r pattern14;
#X obj 923 213 r pattern15;
#X obj 981 178 r pattern16;
#X obj 43 33 unpack 0 0 0 0 0 0 0 0 0 0 0 0 0 0 0 0, f 148;
#X msg 29 -26 0 0 0 0 0 0 0 0 0 0 0 0 0 0 0 0;
#X connect 0 0 10 0;
#X connect 1 0 5 0;
#X connect 2 0 6 0;
#X connect 3 0 7 0;
#X connect 4 0 11 0;
#X connect 5 0 0 0;
#X connect 6 0 0 0;
#X connect 7 0 0 0;
#X connect 8 0 55 0;
#X connect 9 0 4 0;
#X connect 11 0 8 0;
#X connect 11 1 30 0;
#X connect 11 2 31 0;
#X connect 11 3 32 0;
#X connect 11 4 33 0;
#X connect 11 5 34 0;
#X connect 11 6 35 0;
#X connect 11 7 36 0;
#X connect 11 8 37 0;
#X connect 11 9 38 0;
#X connect 11 10 39 0;
#X connect 11 11 40 0;
#X connect 11 12 41 0;
#X connect 11 13 42 0;
#X connect 11 14 43 0;
#X connect 11 15 44 0;
#X connect 11 16 45 0;
#X connect 12 0 0 0;
#X connect 13 0 0 0;
#X connect 14 0 0 0;
#X connect 15 0 12 0;
#X connect 16 0 13 0;
#X connect 17 0 14 0;
#X connect 18 0 0 0;
#X connect 19 0 0 0;
#X connect 20 0 0 0;
#X connect 21 0 0 0;
#X connect 22 0 0 0;
#X connect 23 0 0 0;
#X connect 24 0 18 0;
#X connect 25 0 19 0;
#X connect 26 0 20 0;
#X connect 27 0 21 0;
#X connect 28 0 22 0;
#X connect 29 0 23 0;
#X connect 30 0 54 0;
#X connect 31 0 54 0;
#X connect 32 0 54 0;
#X connect 33 0 54 0;
#X connect 34 0 54 0;
#X connect 35 0 54 0;
#X connect 36 0 54 0;
#X connect 37 0 54 0;
#X connect 38 0 54 0;
#X connect 39 0 54 0;
#X connect 40 0 54 0;
#X connect 41 0 54 0;
#X connect 42 0 54 0;
#X connect 43 0 54 0;
#X connect 44 0 54 0;
#X connect 45 0 54 0;
#X connect 46 0 0 0;
#X connect 47 0 0 0;
#X connect 48 0 0 0;
#X connect 49 0 0 0;
#X connect 50 0 46 0;
#X connect 51 0 47 0;
#X connect 52 0 48 0;
#X connect 53 0 49 0;
#X connect 54 0 5 1;
#X connect 54 1 6 1;
#X connect 54 2 7 1;
#X connect 54 3 12 1;
#X connect 54 4 13 1;
#X connect 54 5 14 1;
#X connect 54 6 18 1;
#X connect 54 7 19 1;
#X connect 54 8 20 1;
#X connect 54 9 21 1;
#X connect 54 10 22 1;
#X connect 54 11 46 1;
#X connect 54 12 47 1;
#X connect 54 13 48 1;
#X connect 54 14 49 1;
#X connect 55 0 54 0;
#X restore 254 39 pd pattern_router;
#X obj 37 291 tgl 19 0 empty empty empty 0 -10 0 12 #fcfcfc #000000 #000000 0 1;
#X connect 0 0 1 0;
#X connect 1 0 0 0;
#X connect 2 0 3 0;
#X connect 2 0 8 0;
#X connect 7 0 5 0;
#X connect 8 1 9 0;
#X connect 9 0 10 1;
#X connect 10 0 11 0;
#X connect 12 0 13 0;
#X connect 14 0 10 0;
