#N canvas 0 0 1919 944 12;
#X declare -path ./audio/instruments;
#X declare -path ./audio/objects;
#X declare -path ./visuals/objects;
#X declare -lib Gem;
#X declare -path ./visuals/vfx;
#X declare -lib Gem;
#N canvas -25 145 920 772 gemwin 0;
#X obj 99 257 gemwin;
#X obj 67 89 outlet;
#X obj 67 10 inlet;
#X obj 67 41 route create;
#X msg 67 70 set destroy;
#X msg 182 68 set create;
#X msg 132 112 create \, 1;
#X msg 238 112 destroy;
#N canvas 87 154 246 179 Gem.init 0;
#X obj 59 26 loadbang;
#X msg 118 81 reset;
#X obj 118 113 outlet;
#X obj 59 45 t b b;
#X connect 0 0 3 0;
#X connect 1 0 2 0;
#X connect 3 1 1 0;
#X restore 289 80 pd Gem.init;
#X obj 233 173 loadbang;
#X msg 232 213 lighting 1;
#X connect 2 0 3 0;
#X connect 3 0 4 0;
#X connect 3 0 6 0;
#X connect 3 1 5 0;
#X connect 3 1 7 0;
#X connect 4 0 1 0;
#X connect 5 0 1 0;
#X connect 6 0 0 0;
#X connect 7 0 0 0;
#X connect 8 0 0 0;
#X connect 9 0 10 0;
#X connect 10 0 0 0;
#X restore 393 36 pd gemwin;
#X msg 393 12 destroy;
#X obj 6 7 netreceive -u 6000;
#X text 35 432 pdsend 6000 localhost udp;
#X obj 28 129 s message;
#X msg 168 123 puzzle 2;
#X floatatom 66 44 5 0 0 0 - - - 0;
#N canvas 758 223 623 529 imports 0;
#X obj 6 6 declare -path ./audio/instruments;
#X obj 6 28 declare -path ./audio/objects;
#X obj 6 51 declare -path ./visuals/objects;
#X obj 6 97 declare -lib Gem;
#X obj 6 74 declare -path ./visuals/vfx;
#X restore 392 59 pd imports;
#N canvas 673 0 1065 917 main-visuals 0;
#X obj 450 274 separator;
#N canvas 760 148 960 944 newWave 0;
#X obj 40 24 inlet;
#X floatatom 143 479 5 0 0 2 size - - 0;
#X floatatom 144 508 5 0 0 2 height - - 0;
#X floatatom 80 75 5 0 0 0 - - - 0;
#X msg 74 205 draw line;
#X msg 74 225 draw fill;
#X msg 74 245 draw point;
#X obj 116 287 vradio 11 1 0 11 empty empty action -10 -6 0 8 #fcfcfc #000000 #000000 0;
#X floatatom 177 191 5 0 100 0 - - - 0;
#X obj 177 209 / 100;
#X msg 177 228 K1 \$1;
#X obj 45 492 t a b;
#X floatatom 177 251 5 0 100 0 - - - 0;
#X obj 177 269 / 100;
#X floatatom 177 311 5 0 100 0 - - - 0;
#X obj 177 329 / 100;
#X floatatom 227 191 5 0 100 0 - - - 0;
#X obj 227 209 / 100;
#X floatatom 227 251 5 0 100 0 - - - 0;
#X obj 227 269 / 100;
#X floatatom 227 311 5 0 100 0 - - - 0;
#X obj 227 329 / 100;
#X msg 227 228 D1 \$1;
#X msg 227 288 D2 \$1;
#X msg 227 348 D3 \$1;
#X msg 177 348 K3 \$1;
#X msg 177 288 K2 \$1;
#X obj 146 305 t a;
#X obj 146 245 t a;
#X obj 146 365 t a;
#X msg 339 302 position 1 1 10;
#X msg 337 348 noise 1;
#X obj 44 527 newWave 30 10;
#X msg 53 179 texture 0;
#X msg 324 405 force 15 5 -0.5;
#X obj 48 94 rotateXYZ 135 0 0;
#X floatatom 110 71 5 0 0 0 - - - 0;
#X obj 46 53 translateXYZ;
#X floatatom 140 75 5 0 0 0 - - - 0;
#X floatatom 79 24 5 0 0 0 - - - 0;
#X floatatom 109 20 5 0 0 0 - - - 0;
#X floatatom 139 24 5 0 0 0 - - - 0;
#X obj 223 18 tgl 15 0 empty empty empty 17 7 0 10 #fcfcfc #000000 #000000 0 1;
#X obj 223 67 i 0;
#X obj 251 66 + 1;
#X floatatom 223 87 5 0 0 0 - - - 0;
#X obj 252 119 / 2;
#X obj 253 140 % 100;
#X obj 223 41 metro 40;
#X obj 333 11 loadbang;
#X obj 97 -15 unpack 0 0 0 0 0 0 0;
#X obj 319 108 random 100;
#X obj 310 77 b;
#X obj 319 148 sel 1;
#X obj 321 174 bng 15 250 50 0 empty empty empty 17 7 0 10 #fcfcfc #000000 #000000;
#X obj 319 128 > 98;
#X obj 303 252 random 9;
#X msg 335 33 -2 -2 -1 12 -23 3 14;
#X obj 404 204 inlet;
#X connect 0 0 37 0;
#X connect 1 0 32 1;
#X connect 2 0 32 2;
#X connect 3 0 35 1;
#X connect 4 0 32 0;
#X connect 5 0 32 0;
#X connect 6 0 32 0;
#X connect 7 0 32 3;
#X connect 8 0 9 0;
#X connect 9 0 10 0;
#X connect 10 0 28 0;
#X connect 11 0 32 0;
#X connect 11 1 32 0;
#X connect 12 0 13 0;
#X connect 13 0 26 0;
#X connect 14 0 15 0;
#X connect 15 0 25 0;
#X connect 16 0 17 0;
#X connect 17 0 22 0;
#X connect 18 0 19 0;
#X connect 19 0 23 0;
#X connect 20 0 21 0;
#X connect 21 0 24 0;
#X connect 22 0 28 0;
#X connect 23 0 27 0;
#X connect 24 0 29 0;
#X connect 25 0 29 0;
#X connect 26 0 27 0;
#X connect 27 0 29 0;
#X connect 28 0 27 0;
#X connect 29 0 32 0;
#X connect 30 0 32 0;
#X connect 31 0 32 0;
#X connect 33 0 32 0;
#X connect 34 0 32 0;
#X connect 35 0 11 0;
#X connect 36 0 35 2;
#X connect 37 0 35 0;
#X connect 38 0 35 3;
#X connect 39 0 37 1;
#X connect 40 0 37 2;
#X connect 41 0 37 3;
#X connect 42 0 48 0;
#X connect 43 0 44 0;
#X connect 43 0 45 0;
#X connect 44 0 43 1;
#X connect 45 0 46 0;
#X connect 45 0 52 0;
#X connect 46 0 47 0;
#X connect 47 0 38 0;
#X connect 48 0 43 0;
#X connect 49 0 42 0;
#X connect 49 0 57 0;
#X connect 49 0 4 0;
#X connect 50 0 39 0;
#X connect 50 1 40 0;
#X connect 50 2 41 0;
#X connect 50 3 3 0;
#X connect 50 4 36 0;
#X connect 50 5 1 0;
#X connect 50 6 2 0;
#X connect 51 0 55 0;
#X connect 52 0 51 0;
#X connect 53 0 54 0;
#X connect 54 0 56 0;
#X connect 55 0 53 0;
#X connect 57 0 50 0;
#X connect 58 0 31 0;
#X restore 450 298 pd newWave;
#X obj 168 358 s m-vj-out;
#X obj 431 392 r message;
#X obj 431 420 route c1;
#X obj 538 254 bng 19 250 50 0 empty empty empty 0 -10 0 12 #fcfcfc #000000 #000000;
#X obj 398 443 cube2;
#X obj 82 11 inlet;
#X obj 7 8 r message;
#N canvas 614 0 960 602 video_channel 0;
#X obj 54 59 route v;
#X obj 122 395 tgl 19 0 empty empty empty 0 -10 0 12 #fcfcfc #000000 #000000 0 1;
#X obj 52 385 separator;
#X obj 46 423 video, f 15;
#X obj 33 293 i;
#X obj 66 291 + 1;
#X floatatom 16 263 5 0 0 0 - - - 0;
#X obj 58 110 bng 19 250 50 0 empty empty empty 0 -10 0 12 #fcfcfc #000000 #000000;
#X obj 37 454 bng 19 250 50 0 empty empty empty 0 -10 0 12 #fcfcfc #000000 #000000;
#X obj 104 114 bng 19 250 50 0 empty empty empty 0 -10 0 12 #fcfcfc #000000 #000000;
#X obj 104 138 random;
#X floatatom 127 515 5 0 0 0 - - - 0;
#X obj 17 503 spigot 0;
#X obj 90 453 tgl 19 0 empty empty empty 0 -10 0 12 #fcfcfc #000000 #000000 0 1;
#X obj 55 85 route next random seq on off;
#X msg 171 107 1;
#X msg 208 107 0;
#X obj 56 7 inlet;
#X obj 311 97 inlet;
#X obj 63 321 inlet;
#X connect 0 0 14 0;
#X connect 0 0 6 0;
#X connect 1 0 3 2;
#X connect 2 0 3 0;
#X connect 3 0 8 0;
#X connect 3 1 10 1;
#X connect 3 1 11 0;
#X connect 4 0 5 0;
#X connect 4 0 3 1;
#X connect 5 0 4 1;
#X connect 6 0 4 0;
#X connect 7 0 4 0;
#X connect 8 0 12 0;
#X connect 9 0 10 0;
#X connect 10 0 6 0;
#X connect 12 0 4 0;
#X connect 13 0 12 1;
#X connect 14 0 7 0;
#X connect 14 1 9 0;
#X connect 14 2 13 0;
#X connect 14 3 15 0;
#X connect 14 4 16 0;
#X connect 15 0 1 0;
#X connect 16 0 1 0;
#X connect 17 0 0 0;
#X connect 18 0 1 0;
#X connect 19 0 2 0;
#X restore 6 272 pd video_channel;
#X f 21;
#N canvas 395 30 1224 916 main-scene 0;
#X obj 8 81 gemframebuffer;
#X obj 8 127 t a a b;
#X obj 8 104 translateXYZ 0 0 -4;
#X obj 89 36 loadbang;
#X obj 6 9 declare -lib Gem;
#X obj 8 151 t a b;
#X msg 69 262 snap;
#X obj 8 314 t a b;
#X msg 188 328 1;
#X obj 8 350 pix_buffer_write \$0-framebuffer;
#X obj 119 263 outlet;
#X obj 214 58 t a b;
#X msg 391 59 1;
#X obj 214 80 pix_buffer_read \$0-framebuffer;
#X obj 216 104 outlet;
#X obj 129 8 inlet;
#X obj 356 161 pix_texture;
#X obj 182 168 r m-vj-out;
#X obj 355 218 rectangle 7.12 4.07;
#X floatatom 421 196 5 0 0 0 - - - 0;
#X floatatom 485 195 5 0 0 0 - - - 0;
#X floatatom 141 78 5 0 0 0 - - - 0;
#X text 216 283 We want to have a 3D scene \, video's playing behind it and to apply video effects to the output. This is achieved using pix_snap THank you hellocatfood for your patch that I used for inspiration!;
#X obj 8 375 pix_buffer \$0-framebuffer 2;
#X obj 214 33 gemhead 30;
#X msg 89 56 dimen 1024 768;
#X obj 8 290 pix_snap 0 0 1024 768;
#X obj 532 202 world_light 1;
#X obj 8 57 gemhead 33;
#N canvas -49 220 1919 944 pix2tex 0;
#X obj 13 23 inlet;
#X obj 45 174 pix_info, f 29;
#X obj 45 253 pix_texture;
#X obj 45 278 rectangle;
#X obj 84 210 /;
#X obj 13 61 t a a;
#X obj 45 145 separator;
#X obj 13 86 outlet;
#X obj 45 123 scale;
#X obj 155 23 loadbang;
#X obj 155 48 gemargs;
#X obj 153 75 route bang;
#X connect 0 0 5 0;
#X connect 1 0 2 0;
#X connect 1 1 4 0;
#X connect 1 2 4 1;
#X connect 2 0 3 0;
#X connect 4 0 3 1;
#X connect 5 0 7 0;
#X connect 5 1 8 0;
#X connect 6 0 1 0;
#X connect 8 0 6 0;
#X connect 9 0 10 0;
#X connect 10 0 2 0;
#X connect 10 1 11 0;
#X connect 11 1 8 1;
#X restore 197 217 pd pix2tex;
#X connect 0 0 2 0;
#X connect 1 0 5 0;
#X connect 1 1 10 0;
#X connect 1 1 27 0;
#X connect 2 0 1 0;
#X connect 3 0 25 0;
#X connect 5 0 26 0;
#X connect 5 1 6 0;
#X connect 6 0 26 0;
#X connect 7 0 9 0;
#X connect 7 1 8 0;
#X connect 8 0 9 1;
#X connect 11 0 13 0;
#X connect 11 1 12 0;
#X connect 12 0 13 1;
#X connect 13 0 14 0;
#X connect 15 0 24 0;
#X connect 15 0 28 0;
#X connect 16 0 18 0;
#X connect 17 0 16 0;
#X connect 19 0 18 1;
#X connect 20 0 18 2;
#X connect 21 0 2 3;
#X connect 24 0 11 0;
#X connect 25 0 0 0;
#X connect 26 0 7 0;
#X connect 28 0 0 0;
#X restore 80 38 pd main-scene;
#X obj 276 344 janky_vfx_refraction;
#X obj 168 214 janky_vfx_puzzle;
#X obj 168 261 janky_vfx_movement2;
#X obj 168 309 janky_vfx_motionblur;
#X obj 168 285 janky_vfx_lumaoffset;
#X obj 168 190 janky_vfx_invert;
#X obj 168 238 janky_vfx_halftone;
#X obj 168 141 janky_vfx_gain;
#X obj 168 117 janky_vfx_flip;
#X obj 168 166 janky_vfx_delay;
#X obj 135 243 tgl 19 0 empty empty empty 0 -10 0 12 #fcfcfc #000000 #000000 0 1;
#X obj 168 94 janky_vfx_roll;
#X text 132 9 thou shalt not use kaleidoscope;
#N canvas -394 460 1919 944 _reset_vfx 0;
#X obj 25 9 inlet;
#X obj 29 134 s message;
#N canvas 139 45 710 592 reset 0;
#X msg 34 67 v fx roll off \, v fx puzzle off \, v fx flip off \, v fx gain off \, v fx delay off \, v fx invert off \, v fx puzzle off \, v fx halftone off \, v fx movement2 off \, v fx lumaoffset off \, v fx motionblur off \, v fx refraction off \;;
#X obj 37 12 inlet;
#X obj 34 251 outlet;
#X obj 37 37 bng 19 250 50 0 empty empty empty 0 -10 0 12 #fcfcfc #000000 #000000;
#X msg 54 150 v fx roll on \, v fx puzzle on \, v fx flip on \, v fx gain on \, v fx delay on \, v fx invert on \, v fx puzzle on \, v fx halftone on \, v fx movement2 on \, v fx lumaoffset on \, v fx motionblur on \, v fx refraction on \;;
#X connect 0 0 2 0;
#X connect 1 0 3 0;
#X connect 3 0 0 0;
#X connect 4 0 2 0;
#X restore 27 111 pd reset;
#X obj 26 36 route v;
#X obj 26 61 route fx;
#X obj 26 86 route reset;
#X obj 81 6 inlet;
#X connect 0 0 3 0;
#X connect 2 0 1 0;
#X connect 3 0 4 0;
#X connect 4 0 5 0;
#X connect 5 0 2 0;
#X connect 6 0 2 0;
#X restore 23 73 pd _reset_vfx;
#X obj 28 36 bng 19 250 50 0 empty empty empty 0 -10 0 12 #fcfcfc #000000 #000000;
#X connect 0 0 1 0;
#X connect 4 0 6 1;
#X connect 5 0 1 1;
#X connect 7 0 10 0;
#X connect 8 0 9 0;
#X connect 8 0 24 0;
#X connect 10 0 9 1;
#X connect 10 0 0 0;
#X connect 10 1 22 0;
#X connect 12 0 17 0;
#X connect 13 0 15 0;
#X connect 14 0 2 0;
#X connect 15 0 14 0;
#X connect 16 0 12 0;
#X connect 17 0 13 0;
#X connect 18 0 20 0;
#X connect 19 0 18 0;
#X connect 20 0 16 0;
#X connect 21 0 9 2;
#X connect 22 0 19 0;
#X connect 25 0 24 1;
#X restore 195 181 pd main-visuals;
#N canvas 960 0 960 944 main-audio 1;
#X obj 15 540 dac~;
#X obj 21 505 *~ 0.9;
#X obj 20 462 kick~;
#X obj 257 442 heavybass~;
#X obj 114 462 snare~;
#X obj 115 445 bng 15 250 50 0 empty empty empty 17 7 0 10 #fcfcfc #000000 #000000;
#X obj 26 443 bng 15 250 50 0 empty empty empty 17 7 0 10 #fcfcfc #000000 #000000;
#X obj 64 462 hihat~;
#X obj 62 442 bng 15 250 50 0 empty empty empty 17 7 0 10 #fcfcfc #000000 #000000;
#X obj 164 460 clap~;
#X obj 160 442 bng 15 250 50 0 empty empty empty 17 7 0 10 #fcfcfc #000000 #000000;
#X obj 56 47 inlet;
#N canvas 346 96 780 769 rseq 0;
#X obj 49 256 mseq;
#X obj 188 204 print;
#X obj 164 48 bng 15 250 50 0 empty empty empty 17 7 0 10 #fcfcfc #000000 #000000;
#X floatatom 229 1 5 0 0 0 - - - 0;
#X floatatom 232 82 5 0 0 0 - - - 0;
#X floatatom 246 157 5 0 0 0 - - - 0;
#X obj 188 179 randseq;
#X text 183 41 generate the sequence;
#X text 277 80 random max: the maximum value used in the random number generation;
#X text 287 157 seq length: the length of sequence;
#X text 276 223 randseq creates a list of numbers and - hyphen for rests;
#X listbox 165 258 81 0 0 0 - - - 0;
#X obj 171 230 list;
#X obj 19 19 inlet;
#X obj 141 11 inlet;
#X obj 49 281 outlet;
#X connect 0 0 15 0;
#X connect 2 0 6 0;
#X connect 3 0 6 1;
#X connect 4 0 6 2;
#X connect 5 0 6 3;
#X connect 6 0 1 0;
#X connect 6 0 12 0;
#X connect 6 0 0 1;
#X connect 12 0 11 0;
#X connect 13 0 0 0;
#X connect 14 0 2 0;
#X restore 53 192 pd rseq;
#X obj 208 71 bng 19 250 50 0 empty empty empty 0 -10 0 12 #fcfcfc #000000 #000000;
#N canvas 346 96 780 770 rseq 0;
#X obj 49 256 mseq;
#X obj 188 204 print;
#X obj 164 48 bng 15 250 50 0 empty empty empty 17 7 0 10 #fcfcfc #000000 #000000;
#X floatatom 229 1 5 0 0 0 - - - 0;
#X floatatom 232 82 5 0 0 0 - - - 0;
#X floatatom 246 157 5 0 0 0 - - - 0;
#X obj 188 179 randseq;
#X text 183 41 generate the sequence;
#X text 277 80 random max: the maximum value used in the random number generation;
#X text 287 157 seq length: the length of sequence;
#X text 276 223 randseq creates a list of numbers and - hyphen for rests;
#X listbox 165 258 81 0 0 0 - - - 0;
#X obj 171 230 list;
#X obj 19 19 inlet;
#X obj 141 11 inlet;
#X obj 49 281 outlet;
#X connect 0 0 15 0;
#X connect 2 0 6 0;
#X connect 3 0 6 1;
#X connect 4 0 6 2;
#X connect 5 0 6 3;
#X connect 6 0 1 0;
#X connect 6 0 12 0;
#X connect 6 0 0 1;
#X connect 12 0 11 0;
#X connect 13 0 0 0;
#X connect 14 0 2 0;
#X restore 116 193 pd rseq;
#N canvas 346 96 780 770 rseq 0;
#X obj 49 256 mseq;
#X obj 188 204 print;
#X obj 164 48 bng 15 250 50 0 empty empty empty 17 7 0 10 #fcfcfc #000000 #000000;
#X floatatom 229 1 5 0 0 0 - - - 0;
#X floatatom 232 82 5 0 0 0 - - - 0;
#X floatatom 246 157 5 0 0 0 - - - 0;
#X obj 188 179 randseq;
#X text 183 41 generate the sequence;
#X text 277 80 random max: the maximum value used in the random number generation;
#X text 287 157 seq length: the length of sequence;
#X text 276 223 randseq creates a list of numbers and - hyphen for rests;
#X listbox 165 258 81 0 0 0 - - - 0;
#X obj 171 230 list;
#X obj 19 19 inlet;
#X obj 141 11 inlet;
#X obj 49 281 outlet;
#X connect 0 0 15 0;
#X connect 2 0 6 0;
#X connect 3 0 6 1;
#X connect 4 0 6 2;
#X connect 5 0 6 3;
#X connect 6 0 1 0;
#X connect 6 0 12 0;
#X connect 6 0 0 1;
#X connect 12 0 11 0;
#X connect 13 0 0 0;
#X connect 14 0 2 0;
#X restore 182 193 pd rseq;
#N canvas 346 96 780 769 rseq 0;
#X obj 49 256 mseq;
#X obj 188 204 print;
#X obj 164 48 bng 15 250 50 0 empty empty empty 17 7 0 10 #fcfcfc #000000 #000000;
#X floatatom 229 1 5 0 0 0 - - - 0;
#X floatatom 232 82 5 0 0 0 - - - 0;
#X floatatom 246 157 5 0 0 0 - - - 0;
#X obj 188 179 randseq;
#X text 183 41 generate the sequence;
#X text 277 80 random max: the maximum value used in the random number generation;
#X text 287 157 seq length: the length of sequence;
#X text 276 223 randseq creates a list of numbers and - hyphen for rests;
#X listbox 165 258 81 0 0 0 - - - 0;
#X obj 171 230 list;
#X obj 19 19 inlet;
#X obj 141 11 inlet;
#X obj 49 281 outlet;
#X connect 0 0 15 0;
#X connect 2 0 6 0;
#X connect 3 0 6 1;
#X connect 4 0 6 2;
#X connect 5 0 6 3;
#X connect 6 0 1 0;
#X connect 6 0 12 0;
#X connect 6 0 0 1;
#X connect 12 0 11 0;
#X connect 13 0 0 0;
#X connect 14 0 2 0;
#X restore 245 194 pd rseq;
#N canvas 346 96 780 770 rseq 0;
#X obj 49 256 mseq;
#X obj 188 204 print;
#X obj 164 48 bng 15 250 50 0 empty empty empty 17 7 0 10 #fcfcfc #000000 #000000;
#X floatatom 229 1 5 0 0 0 - - - 0;
#X floatatom 232 82 5 0 0 0 - - - 0;
#X floatatom 246 157 5 0 0 0 - - - 0;
#X obj 188 179 randseq;
#X text 183 41 generate the sequence;
#X text 277 80 random max: the maximum value used in the random number generation;
#X text 287 157 seq length: the length of sequence;
#X text 276 223 randseq creates a list of numbers and - hyphen for rests;
#X listbox 165 258 81 0 0 0 - - - 0;
#X obj 171 230 list;
#X obj 19 19 inlet;
#X obj 141 11 inlet;
#X obj 49 281 outlet;
#X connect 0 0 15 0;
#X connect 2 0 6 0;
#X connect 3 0 6 1;
#X connect 4 0 6 2;
#X connect 5 0 6 3;
#X connect 6 0 1 0;
#X connect 6 0 12 0;
#X connect 6 0 0 1;
#X connect 12 0 11 0;
#X connect 13 0 0 0;
#X connect 14 0 2 0;
#X restore 260 346 pd rseq;
#X obj 214 26 inlet;
#X obj 186 568 outlet;
#X floatatom 281 402 5 0 0 0 - - - 0;
#X floatatom 317 397 5 0 0 0 - - - 0;
#X floatatom 357 397 5 0 0 0 - - - 0;
#X obj 257 467 *~ 0.7;
#X connect 1 0 0 0;
#X connect 1 0 0 1;
#X connect 2 0 1 0;
#X connect 3 0 23 0;
#X connect 4 0 1 0;
#X connect 5 0 4 0;
#X connect 5 0 20 0;
#X connect 6 0 2 0;
#X connect 6 0 20 0;
#X connect 7 0 1 0;
#X connect 8 0 7 0;
#X connect 8 0 20 0;
#X connect 9 0 1 0;
#X connect 10 0 9 0;
#X connect 10 0 20 0;
#X connect 11 0 12 0;
#X connect 11 0 14 0;
#X connect 11 0 15 0;
#X connect 11 0 16 0;
#X connect 11 0 17 0;
#X connect 12 0 6 0;
#X connect 13 0 12 1;
#X connect 13 0 14 1;
#X connect 13 0 15 1;
#X connect 13 0 16 1;
#X connect 13 0 17 1;
#X connect 14 0 8 0;
#X connect 15 0 5 0;
#X connect 15 0 19 0;
#X connect 16 0 10 0;
#X connect 17 0 3 0;
#X connect 18 0 13 0;
#X connect 20 0 3 1;
#X connect 21 0 3 2;
#X connect 22 0 3 3;
#X connect 23 0 1 0;
#X restore 210 279 pd main-audio;
#X obj 193 156 tgl 19 0 empty empty empty 0 -10 0 12 #fcfcfc #000000 #000000 0 1;
#X obj 22 186 route transport speed;
#X floatatom 92 215 5 0 0 0 - - - 0;
#X obj 34 241 metro 100;
#X obj 34 266 s metro;
#X obj 254 13 route pz;
#N canvas 28 239 1400 656 pattern_router 0;
#X floatatom 582 374 5 0 0 0 - - - 0;
#X obj 19 204 r pattern1;
#X obj 98 204 r pattern2;
#X obj 174 204 r pattern3;
#X obj 46 -254 route p;
#X obj 20 238 spigot 0;
#X obj 84 238 spigot 0;
#X obj 148 238 spigot 0;
#X obj 24 -173 bng 19 250 50 0 empty empty empty 0 -10 0 12 #fcfcfc #000000 #000000;
#X obj 45 -278 inlet;
#X obj 580 396 outlet;
#X obj 46 -231 sel 0 1 2 3 4 5 6 7 8 9 10 11 12 13 14 15 16, f 79;
#X obj 212 238 spigot 0;
#X obj 276 238 spigot 0;
#X obj 340 238 spigot 0;
#X obj 211 180 r pattern4;
#X obj 290 180 r pattern5;
#X obj 366 180 r pattern6;
#X obj 404 236 spigot 0;
#X obj 468 236 spigot 0;
#X obj 532 236 spigot 0;
#X obj 596 236 spigot 0;
#X obj 660 236 spigot 0;
#X obj 724 236 spigot 0;
#X obj 403 202 r pattern7;
#X obj 482 202 r pattern8;
#X obj 558 202 r pattern9;
#X obj 595 178 r pattern10;
#X obj 680 178 r pattern11;
#X obj 761 178 r pattern12;
#X msg 47 -196 1 0 0 0 0 0 0 0 0 0 0 0 0 0 0 0;
#X msg 72 -174 0 1 0 0 0 0 0 0 0 0 0 0 0 0 0 0;
#X msg 92 -151 0 0 1 0 0 0 0 0 0 0 0 0 0 0 0 0;
#X msg 107 -128 0 0 0 1 0 0 0 0 0 0 0 0 0 0 0 0;
#X msg 116 -102 0 0 0 0 1 0 0 0 0 0 0 0 0 0 0 0;
#X msg 136 -79 0 0 0 0 0 1 0 0 0 0 0 0 0 0 0 0;
#X msg 151 -56 0 0 0 0 0 0 1 0 0 0 0 0 0 0 0 0;
#X msg 395 -196 0 0 0 0 0 0 0 1 0 0 0 0 0 0 0 0;
#X msg 394 -173 0 0 0 0 0 0 0 0 1 0 0 0 0 0 0 0;
#X msg 393 -151 0 0 0 0 0 0 0 0 0 1 0 0 0 0 0 0;
#X msg 393 -128 0 0 0 0 0 0 0 0 0 0 1 0 0 0 0 0;
#X msg 392 -104 0 0 0 0 0 0 0 0 0 0 0 1 0 0 0 0;
#X msg 391 -81 0 0 0 0 0 0 0 0 0 0 0 0 1 0 0 0;
#X msg 391 -58 0 0 0 0 0 0 0 0 0 0 0 0 0 1 0 0;
#X msg 392 -33 0 0 0 0 0 0 0 0 0 0 0 0 0 0 1 0;
#X msg 392 -8 0 0 0 0 0 0 0 0 0 0 0 0 0 0 0 1;
#X obj 790 236 spigot 0;
#X obj 854 236 spigot 0;
#X obj 918 236 spigot 0;
#X obj 982 236 spigot 0;
#X obj 789 209 r pattern13;
#X obj 865 174 r pattern14;
#X obj 923 213 r pattern15;
#X obj 981 178 r pattern16;
#X obj 43 33 unpack 0 0 0 0 0 0 0 0 0 0 0 0 0 0 0 0, f 148;
#X msg 29 -26 0 0 0 0 0 0 0 0 0 0 0 0 0 0 0 0;
#X connect 0 0 10 0;
#X connect 1 0 5 0;
#X connect 2 0 6 0;
#X connect 3 0 7 0;
#X connect 4 0 11 0;
#X connect 5 0 0 0;
#X connect 6 0 0 0;
#X connect 7 0 0 0;
#X connect 8 0 55 0;
#X connect 9 0 4 0;
#X connect 11 0 8 0;
#X connect 11 1 30 0;
#X connect 11 2 31 0;
#X connect 11 3 32 0;
#X connect 11 4 33 0;
#X connect 11 5 34 0;
#X connect 11 6 35 0;
#X connect 11 7 36 0;
#X connect 11 8 37 0;
#X connect 11 9 38 0;
#X connect 11 10 39 0;
#X connect 11 11 40 0;
#X connect 11 12 41 0;
#X connect 11 13 42 0;
#X connect 11 14 43 0;
#X connect 11 15 44 0;
#X connect 11 16 45 0;
#X connect 12 0 0 0;
#X connect 13 0 0 0;
#X connect 14 0 0 0;
#X connect 15 0 12 0;
#X connect 16 0 13 0;
#X connect 17 0 14 0;
#X connect 18 0 0 0;
#X connect 19 0 0 0;
#X connect 20 0 0 0;
#X connect 21 0 0 0;
#X connect 22 0 0 0;
#X connect 23 0 0 0;
#X connect 24 0 18 0;
#X connect 25 0 19 0;
#X connect 26 0 20 0;
#X connect 27 0 21 0;
#X connect 28 0 22 0;
#X connect 29 0 23 0;
#X connect 30 0 54 0;
#X connect 31 0 54 0;
#X connect 32 0 54 0;
#X connect 33 0 54 0;
#X connect 34 0 54 0;
#X connect 35 0 54 0;
#X connect 36 0 54 0;
#X connect 37 0 54 0;
#X connect 38 0 54 0;
#X connect 39 0 54 0;
#X connect 40 0 54 0;
#X connect 41 0 54 0;
#X connect 42 0 54 0;
#X connect 43 0 54 0;
#X connect 44 0 54 0;
#X connect 45 0 54 0;
#X connect 46 0 0 0;
#X connect 47 0 0 0;
#X connect 48 0 0 0;
#X connect 49 0 0 0;
#X connect 50 0 46 0;
#X connect 51 0 47 0;
#X connect 52 0 48 0;
#X connect 53 0 49 0;
#X connect 54 0 5 1;
#X connect 54 1 6 1;
#X connect 54 2 7 1;
#X connect 54 3 12 1;
#X connect 54 4 13 1;
#X connect 54 5 14 1;
#X connect 54 6 18 1;
#X connect 54 7 19 1;
#X connect 54 8 20 1;
#X connect 54 9 21 1;
#X connect 54 10 22 1;
#X connect 54 11 46 1;
#X connect 54 12 47 1;
#X connect 54 13 48 1;
#X connect 54 14 49 1;
#X connect 55 0 54 0;
#X restore 254 39 pd pattern_router;
#X msg 117 37 puzzle 23;
#X msg 66 67 v fx puzzle \$1;
#X obj 28 215 tgl 19 0 empty empty empty 0 -10 0 12 #fcfcfc #000000 #000000 0 1;
#X connect 0 0 1 0;
#X connect 1 0 0 0;
#X connect 2 0 4 0;
#X connect 2 0 11 0;
#X connect 5 0 4 0;
#X connect 6 0 18 0;
#X connect 10 0 8 0;
#X connect 11 1 12 0;
#X connect 12 0 13 1;
#X connect 13 0 14 0;
#X connect 13 0 9 0;
#X connect 15 0 16 0;
#X connect 17 0 4 0;
#X connect 18 0 4 0;
#X connect 19 0 13 0;
