#N canvas 189 64 680 626 12;
#X obj 23 69 pix_gain;
#X floatatom 45 24 5 0 0 1 common - - 0;
#X msg 99 42 1 0.5 0;
#X msg 100 64 0 0.4 0.8 1;
#X msg 52 92 saturate \$1;
#X obj 129 92 tgl 18 0 empty empty empty 0 -9 0 10 #fcfcfc #000000 #000000 0 1;
#X text 260 10 (JPEG \, TIFF \, ..);
#X obj 202 98 pix_halftone;
#X floatatom 218 42 5 1 32 2 size - - 0;
#X floatatom 266 42 5 0 0 2 angle - - 0;
#X floatatom 311 42 5 0 1 2 smooth - - 0;
#X obj 287 79 hradio 15 1 0 5 empty empty style 40 -6 0 8 #fcfcfc #000000 #000000 0;
#X msg 287 98 style \$1;
#X obj 40 130 tgl 15 1 empty empty empty 0 -6 0 8 #fcfcfc #000000 #000000 1 1;
#X obj 23 151 pix_invert;
#X floatatom 404 13 5 0 64 1 segments - - 0;
#X floatatom 419 33 5 0 0 1 sourceAngle - - 0;
#X obj 389 233 pix_kaleidoscope;
#X floatatom 450 109 5 0 0 1 outputAngle - - 0;
#X floatatom 496 205 5 0.1 10 1 sap - - 0;
#X floatatom 480 189 5 0 1 1 rlp - - 0;
#X obj 465 168 pack;
#X obj 519 168 t b f;
#X floatatom 465 129 4 0 100 0 - - - 0;
#X floatatom 517 129 4 0 100 0 - - - 0;
#X obj 465 148 * 0.01;
#X obj 517 148 * 0.01;
#X obj 435 90 pack;
#X obj 489 90 t b f;
#X floatatom 435 51 4 0 100 0 - - - 0;
#X floatatom 487 51 4 0 100 0 - - - 0;
#X obj 435 70 * 0.01;
#X obj 487 70 * 0.01;
#X floatatom 294 257 5 0 100 1 low - - 0;
#X floatatom 294 275 5 0 100 1 high - - 0;
#X msg 211 165 auto \$1;
#X obj 211 147 tgl 15 0 empty empty empty 0 -6 0 8 #fcfcfc #000000 #000000 0 1;
#X obj 211 184 tgl 15 0 empty empty empty 0 -6 0 8 #fcfcfc #000000 #000000 0 1;
#X obj 271 147 tgl 15 0 empty empty empty 0 -6 0 8 #fcfcfc #000000 #000000 0 1;
#X msg 271 165 inv \$1;
#X msg 212 232 0 1 0.5 0.6;
#X obj 202 272 pix_levels;
#X msg 287 223 0.5 0.6 0 1;
#X msg 211 202 uni \$1;
#X msg 287 200 0 0.1 1 0.5;
#X obj 24 271 pix_lumaoffset;
#X floatatom 70 216 5 0 0 2 offset - - 0;
#X floatatom 117 216 5 0 0 2 gap - - 0;
#X obj 106 233 tgl 15 0 empty empty empty 0 -6 0 8 #fcfcfc #000000 #000000 0 1;
#X msg 106 251 smooth \$1;
#X msg 38 250 fill \$1;
#X obj 38 232 tgl 15 0 empty empty empty 0 -6 0 8 #fcfcfc #000000 #000000 0 1;
#X floatatom 499 263 5 0 100 0 blur - - 0;
#X obj 406 299 pix_motionblur;
#X obj 499 280 / 100;
#X floatatom 93 325 3 0 100 2 threshold - - 0;
#X obj 17 366 pix_movement 0.5;
#X obj 92 341 / 100;
#X obj 33 323 pix_rgba;
#X obj 474 342 pix_film;
#X obj 538 342 t f;
#X floatatom 265 335 3 0 100 2 lo_threshold - - 0;
#X obj 264 351 / 100;
#X obj 221 377 pix_movement2;
#X floatatom 319 356 3 0 100 2 threshold - - 0;
#X obj 318 372 / 100;
#X msg 226 339 bang;
#X obj 409 428 pix_posterize;
#X floatatom 431 392 5 0 255 2 factor - - 0;
#X obj 485 411 hradio 15 1 0 5 empty empty limit 0 -6 0 8 #fcfcfc #000000 #000000 0;
#X obj 431 408 / 255;
#X obj 12 444 pix_crop;
#X floatatom 24 408 5 0 0 1 dimX - - 0;
#X floatatom 37 425 5 0 0 1 dimY - - 0;
#X floatatom 104 408 5 0 0 1 offX - - 0;
#X floatatom 117 425 5 0 0 1 offY - - 0;
#X connect 1 0 0 1;
#X connect 2 0 0 2;
#X connect 3 0 0 2;
#X connect 4 0 0 0;
#X connect 5 0 4 0;
#X connect 8 0 7 1;
#X connect 9 0 7 2;
#X connect 10 0 7 3;
#X connect 11 0 12 0;
#X connect 12 0 7 0;
#X connect 13 0 14 0;
#X connect 15 0 17 1;
#X connect 16 0 17 2;
#X connect 18 0 17 4;
#X connect 19 0 17 7;
#X connect 20 0 17 6;
#X connect 21 0 17 5;
#X connect 22 0 21 0;
#X connect 22 1 21 1;
#X connect 23 0 25 0;
#X connect 24 0 26 0;
#X connect 25 0 21 0;
#X connect 26 0 22 0;
#X connect 27 0 17 3;
#X connect 28 0 27 0;
#X connect 28 1 27 1;
#X connect 29 0 31 0;
#X connect 30 0 32 0;
#X connect 31 0 27 0;
#X connect 32 0 28 0;
#X connect 33 0 41 5;
#X connect 34 0 41 6;
#X connect 35 0 41 0;
#X connect 36 0 35 0;
#X connect 37 0 43 0;
#X connect 38 0 39 0;
#X connect 39 0 41 0;
#X connect 40 0 41 1;
#X connect 42 0 41 3;
#X connect 43 0 41 0;
#X connect 44 0 41 2;
#X connect 46 0 45 1;
#X connect 47 0 45 2;
#X connect 48 0 49 0;
#X connect 49 0 45 0;
#X connect 50 0 45 0;
#X connect 51 0 50 0;
#X connect 52 0 54 0;
#X connect 54 0 53 1;
#X connect 55 0 57 0;
#X connect 57 0 56 1;
#X connect 58 0 56 0;
#X connect 59 2 60 0;
#X connect 60 0 59 1;
#X connect 61 0 62 0;
#X connect 62 0 63 1;
#X connect 64 0 65 0;
#X connect 65 0 63 2;
#X connect 66 0 63 0;
#X connect 68 0 70 0;
#X connect 69 0 67 2;
#X connect 70 0 67 1;
#X connect 72 0 71 1;
#X connect 73 0 71 2;
#X connect 74 0 71 3;
#X connect 75 0 71 4;
